<?xml version="1.0" encoding="UTF-8" standalone="no"?><!DOCTYPE svg PUBLIC "-//W3C//DTD SVG 1.1//EN" "http://www.w3.org/Graphics/SVG/1.1/DTD/svg11.dtd"><svg width="100%" height="100%" viewBox="0 0 390 100" version="1.1" xmlns="http://www.w3.org/2000/svg" xmlns:xlink="http://www.w3.org/1999/xlink" xml:space="preserve" style="fill-rule:evenodd;clip-rule:evenodd;stroke-linejoin:round;stroke-miterlimit:1.41421;"><g><rect x="19.471" y="0" width="79.063" height="100" style="fill:#ed9257;"/><path d="M62.705,88.107l27.627,-51.916l-19.433,0l-27.626,51.916l19.432,0Z" style="fill:#e76f3c;fill-rule:nonzero;"/><path d="M98.52,88.107l0.013,-36.455l-19.445,36.455l19.432,0Z" style="fill:#e76f3c;fill-rule:nonzero;"/><path d="M27.273,88.107l27.627,-51.916l-19.432,0l-15.997,30.065l0,21.851l7.802,0Z" style="fill:#e76f3c;fill-rule:nonzero;"/><path d="M27.648,88.144l-27.648,-51.953l19.447,0l27.645,51.953l-19.444,0l0,0Z" style="fill:#fff;fill-rule:nonzero;"/><path d="M63.103,88.144l-27.647,-51.953l19.447,0l27.645,51.953l-19.445,0Z" style="fill:#fff;fill-rule:nonzero;"/><path d="M98.559,88.144l-27.646,-51.953l19.446,0l27.645,51.953l-19.445,0l0,0Z" style="fill:#fff;fill-rule:nonzero;"/><path d="M118.352,37.271l5.221,0l4.588,14.998l4.968,-15.062l4.178,0l4.968,15.062l4.588,-14.998l5.094,0l-7.562,22.31l-4.242,0l-4.998,-14.493l-5,14.493l-4.24,0l-7.563,-22.31l0,0Z" style="fill:#4d4d4d;fill-rule:nonzero;"/><path d="M161.996,48.441c1.224,0 2.172,-0.322 2.847,-0.965c0.676,-0.643 1.013,-1.44 1.013,-2.388l0,-0.063c0,-1.098 -0.353,-1.932 -1.06,-2.501c-0.707,-0.571 -1.672,-0.853 -2.896,-0.853l-3.765,0l0,6.77l3.861,0Zm-8.733,-11.17l9.049,0c1.329,0 2.516,0.186 3.56,0.554c1.043,0.37 1.929,0.892 2.659,1.566c0.728,0.674 1.285,1.482 1.676,2.421c0.39,0.939 0.586,1.976 0.586,3.117l0,0.063c0,1.287 -0.233,2.415 -0.696,3.384c-0.465,0.971 -1.104,1.785 -1.914,2.44c-0.812,0.652 -1.763,1.143 -2.848,1.469c-1.088,0.33 -2.254,0.492 -3.498,0.492l-3.702,0l0,6.643l-4.872,0l0,-22.149l0,0Z" style="fill:#4d4d4d;fill-rule:nonzero;"/><g><path d="M127.119,77.005c1.224,0 2.172,-0.321 2.848,-0.965c0.674,-0.643 1.012,-1.439 1.012,-2.388l0,-0.064c0,-1.096 -0.354,-1.929 -1.06,-2.499c-0.707,-0.569 -1.672,-0.854 -2.895,-0.854l-3.764,0l0,6.77l3.859,0Zm-8.731,-11.168l9.047,0c1.329,0 2.516,0.186 3.56,0.555c1.044,0.368 1.929,0.891 2.657,1.565c0.727,0.675 1.287,1.482 1.676,2.42c0.391,0.939 0.585,1.978 0.585,3.116l0,0.064c0,1.286 -0.232,2.415 -0.696,3.384c-0.464,0.971 -1.101,1.783 -1.913,2.436c-0.812,0.655 -1.761,1.144 -2.848,1.472c-1.085,0.327 -2.251,0.49 -3.495,0.49l-3.701,0l0,6.644l-4.872,0l0,-22.146l0,0Z" style="fill:#ed9257;fill-rule:nonzero;"/><path d="M147.967,83.869c0.969,0 1.866,-0.178 2.689,-0.537c0.821,-0.359 1.523,-0.855 2.103,-1.487c0.58,-0.633 1.033,-1.365 1.361,-2.198c0.327,-0.834 0.489,-1.724 0.489,-2.674l0,-0.062c0,-0.95 -0.162,-1.846 -0.489,-2.69c-0.328,-0.844 -0.792,-1.581 -1.392,-2.214c-0.601,-0.632 -1.313,-1.134 -2.136,-1.503c-0.823,-0.369 -1.719,-0.553 -2.689,-0.553c-0.991,0 -1.892,0.178 -2.704,0.537c-0.812,0.359 -1.508,0.855 -2.088,1.487c-0.58,0.633 -1.034,1.365 -1.36,2.198c-0.328,0.834 -0.491,1.724 -0.491,2.674l0,0.064c0,0.948 0.163,1.845 0.491,2.688c0.326,0.844 0.79,1.582 1.392,2.214c0.6,0.634 1.306,1.134 2.118,1.503c0.812,0.369 1.714,0.553 2.706,0.553l0,0Zm-0.064,4.494c-1.708,0 -3.279,-0.302 -4.714,-0.903c-1.433,-0.6 -2.673,-1.412 -3.717,-2.436c-1.044,-1.023 -1.856,-2.224 -2.436,-3.605c-0.58,-1.382 -0.869,-2.864 -0.869,-4.446l0,-0.062c0,-1.583 0.294,-3.064 0.885,-4.446c0.591,-1.381 1.408,-2.593 2.452,-3.637c1.044,-1.044 2.288,-1.867 3.733,-2.468c1.444,-0.601 3.022,-0.901 4.73,-0.901c1.708,0 3.278,0.3 4.713,0.901c1.435,0.601 2.673,1.413 3.717,2.436c1.044,1.023 1.856,2.225 2.436,3.607c0.58,1.381 0.87,2.862 0.87,4.444l0,0.064c0,1.581 -0.295,3.062 -0.886,4.444c-0.59,1.381 -1.408,2.594 -2.452,3.638c-1.044,1.044 -2.288,1.867 -3.733,2.467c-1.444,0.601 -3.02,0.903 -4.729,0.903l0,0Z" style="fill:#ed9257;fill-rule:nonzero;"/><path d="M171.472,76.593c1.201,0 2.124,-0.284 2.768,-0.853c0.643,-0.569 0.964,-1.329 0.964,-2.279l0,-0.062c0,-1.055 -0.337,-1.846 -1.012,-2.372c-0.675,-0.528 -1.613,-0.792 -2.816,-0.792l-4.84,0l0,6.358l4.936,0Zm-9.808,-10.756l10.124,0c2.805,0 4.956,0.75 6.453,2.247c1.266,1.265 1.899,2.952 1.899,5.061l0,0.064c0,1.792 -0.439,3.252 -1.313,4.382c-0.876,1.128 -2.02,1.956 -3.432,2.482l5.409,7.91l-5.695,0l-4.745,-7.087l-0.063,0l-3.765,0l0,7.087l-4.872,0l0,-22.146l0,0Z" style="fill:#ed9257;fill-rule:nonzero;"/><path d="M187.32,70.331l-6.737,0l0,-4.494l18.348,0l0,4.494l-6.739,0l0,17.652l-4.872,0l0,-17.652l0,0Z" style="fill:#ed9257;fill-rule:nonzero;"/><path d="M206.275,65.837l5.25,0l5.822,9.364l5.821,-9.364l5.251,0l0,22.146l-4.84,0l0,-14.458l-6.232,9.459l-0.127,0l-6.169,-9.364l0,14.363l-4.776,0l0,-22.146l0,0Z" style="fill:#ed9257;fill-rule:nonzero;"/><path d="M244.079,78.713l-2.943,-7.181l-2.941,7.181l5.884,0Zm-5.126,-13.033l4.492,0l9.491,22.303l-5.093,0l-2.024,-4.967l-9.364,0l-2.026,4.967l-4.966,0l9.49,-22.303l0,0Z" style="fill:#ed9257;fill-rule:nonzero;"/><path d="M264.356,88.363c-1.624,0 -3.132,-0.296 -4.524,-0.887c-1.392,-0.591 -2.593,-1.397 -3.605,-2.42c-1.014,-1.023 -1.804,-2.231 -2.374,-3.623c-0.569,-1.39 -0.853,-2.878 -0.853,-4.46l0,-0.062c0,-1.583 0.284,-3.064 0.853,-4.446c0.57,-1.381 1.36,-2.593 2.374,-3.637c1.012,-1.044 2.224,-1.867 3.637,-2.468c1.413,-0.601 2.973,-0.901 4.683,-0.901c1.033,0 1.977,0.084 2.83,0.252c0.855,0.169 1.63,0.401 2.326,0.696c0.696,0.296 1.338,0.654 1.929,1.076c0.591,0.422 1.14,0.886 1.645,1.392l-3.1,3.574c-0.865,-0.78 -1.745,-1.392 -2.641,-1.834c-0.896,-0.443 -1.904,-0.664 -3.021,-0.664c-0.928,0 -1.788,0.178 -2.579,0.537c-0.791,0.359 -1.471,0.855 -2.04,1.487c-0.569,0.633 -1.012,1.365 -1.329,2.198c-0.316,0.834 -0.475,1.724 -0.475,2.674l0,0.064c0,0.948 0.159,1.845 0.475,2.688c0.317,0.844 0.754,1.582 1.313,2.214c0.559,0.634 1.233,1.134 2.025,1.503c0.791,0.369 1.66,0.553 2.61,0.553c1.265,0 2.336,-0.232 3.21,-0.696c0.876,-0.464 1.746,-1.096 2.611,-1.897l3.1,3.132c-0.569,0.611 -1.16,1.16 -1.772,1.645c-0.612,0.484 -1.281,0.902 -2.009,1.25c-0.727,0.348 -1.523,0.61 -2.388,0.79c-0.864,0.179 -1.835,0.27 -2.911,0.27Z" style="fill:#ed9257;fill-rule:nonzero;"/><path d="M285.773,83.869c1.034,0 2.004,-0.2 2.911,-0.6l-3.607,-3.069l3.1,-3.48l3.639,3.291c0.4,-0.887 0.601,-1.899 0.601,-3.038l0,-0.062c0,-0.95 -0.164,-1.846 -0.49,-2.69c-0.327,-0.844 -0.791,-1.581 -1.392,-2.214c-0.602,-0.632 -1.314,-1.134 -2.136,-1.503c-0.823,-0.369 -1.719,-0.553 -2.688,-0.553c-0.992,0 -1.894,0.178 -2.706,0.537c-0.812,0.359 -1.508,0.855 -2.088,1.487c-0.58,0.633 -1.033,1.365 -1.36,2.198c-0.326,0.834 -0.49,1.724 -0.49,2.674l0,0.064c0,0.948 0.164,1.845 0.49,2.688c0.327,0.844 0.791,1.582 1.392,2.214c0.602,0.634 1.307,1.134 2.119,1.503c0.812,0.369 1.715,0.553 2.705,0.553l0,0Zm6.518,2.595c-0.95,0.612 -1.972,1.081 -3.07,1.408c-1.096,0.327 -2.266,0.491 -3.51,0.491c-1.71,0 -3.28,-0.302 -4.715,-0.903c-1.433,-0.6 -2.672,-1.412 -3.716,-2.436c-1.044,-1.023 -1.856,-2.224 -2.436,-3.605c-0.58,-1.382 -0.871,-2.864 -0.871,-4.446l0,-0.062c0,-1.583 0.296,-3.064 0.886,-4.446c0.59,-1.381 1.408,-2.593 2.452,-3.637c1.044,-1.044 2.288,-1.867 3.733,-2.468c1.444,-0.601 3.021,-0.901 4.729,-0.901c1.708,0 3.28,0.3 4.714,0.901c1.434,0.601 2.673,1.413 3.717,2.436c1.044,1.023 1.856,2.225 2.436,3.607c0.58,1.381 0.871,2.862 0.871,4.444l0,0.064c0,1.16 -0.17,2.277 -0.507,3.353c-0.337,1.075 -0.823,2.077 -1.455,3.005l2.278,1.93l-3.1,3.448l-2.436,-2.183l0,0Z" style="fill:#ed9257;fill-rule:nonzero;"/><path d="M308.709,88.331c-2.974,0 -5.314,-0.823 -7.024,-2.468c-1.708,-1.646 -2.561,-4.102 -2.561,-7.371l0,-12.655l4.871,0l0,12.528c0,1.814 0.422,3.18 1.266,4.098c0.843,0.917 2.014,1.376 3.511,1.376c1.497,0 2.668,-0.443 3.512,-1.33c0.843,-0.885 1.265,-2.214 1.265,-3.985l0,-12.687l4.872,0l0,12.496c0,1.688 -0.226,3.154 -0.68,4.398c-0.454,1.245 -1.102,2.284 -1.946,3.116c-0.843,0.833 -1.866,1.456 -3.068,1.866c-1.203,0.412 -2.542,0.618 -4.018,0.618Z" style="fill:#ed9257;fill-rule:nonzero;"/><path d="M333.732,78.713l-2.941,-7.181l-2.943,7.181l5.884,0Zm-5.124,-13.033l4.492,0l9.491,22.303l-5.094,0l-2.025,-4.967l-9.364,0l-2.024,4.967l-4.967,0l9.491,-22.303l0,0Z" style="fill:#ed9257;fill-rule:nonzero;"/><path d="M353.441,76.593c1.202,0 2.124,-0.284 2.768,-0.853c0.643,-0.569 0.964,-1.329 0.964,-2.279l0,-0.062c0,-1.055 -0.337,-1.846 -1.012,-2.372c-0.674,-0.528 -1.613,-0.792 -2.814,-0.792l-4.842,0l0,6.358l4.936,0Zm-9.806,-10.756l10.122,0c2.806,0 4.956,0.75 6.454,2.247c1.265,1.265 1.898,2.952 1.898,5.061l0,0.064c0,1.792 -0.437,3.252 -1.313,4.382c-0.875,1.128 -2.019,1.956 -3.432,2.482l5.409,7.91l-5.694,0l-4.746,-7.087l-0.062,0l-3.766,0l0,7.087l-4.87,0l0,-22.146l0,0Z" style="fill:#ed9257;fill-rule:nonzero;"/><rect x="364.355" y="65.837" width="4.872" height="22.144" style="fill:#ed9257;"/><path d="M372.391,65.837l16.702,0l0,4.335l-11.862,0l0,4.492l10.44,0l0,4.335l-10.44,0l0,4.649l12.021,0l0,4.335l-16.861,0l0,-22.146l0,0Z" style="fill:#ed9257;fill-rule:nonzero;"/></g></g></svg>