<?xml version="1.0" encoding="UTF-8" standalone="no"?><!DOCTYPE svg PUBLIC "-//W3C//DTD SVG 1.1//EN" "http://www.w3.org/Graphics/SVG/1.1/DTD/svg11.dtd"><svg width="100%" height="100%" viewBox="0 0 232 75" version="1.1" xmlns="http://www.w3.org/2000/svg" xmlns:xlink="http://www.w3.org/1999/xlink" xml:space="preserve" style="fill-rule:evenodd;clip-rule:evenodd;stroke-linejoin:round;stroke-miterlimit:1.41421;"><g><rect x="14.603" y="0" width="59.299" height="75" style="fill:#007dc3;fill-rule:nonzero;"/><path d="M47.054,66.108l20.735,-38.965l-14.585,0l-20.735,38.965l14.585,0Z" style="fill:#00688c;fill-rule:nonzero;"/><path d="M73.935,66.108l0.01,-27.361l-14.594,27.361l14.584,0Z" style="fill:#00688c;fill-rule:nonzero;"/><path d="M20.46,66.108l20.736,-38.965l-14.586,0l-12.006,22.565l0,16.4l5.856,0Z" style="fill:#00688c;fill-rule:nonzero;"/><path d="M20.736,66.108l-20.736,-38.965l14.585,0l20.735,38.965l-14.584,0Z" style="fill:#fff;fill-rule:nonzero;"/><path d="M47.328,66.108l-20.735,-38.965l14.585,0l20.735,38.965l-14.585,0Z" style="fill:#fff;fill-rule:nonzero;"/><path d="M73.921,66.108l-20.735,-38.965l14.585,0l20.734,38.965l-14.584,0Z" style="fill:#fff;fill-rule:nonzero;"/><path d="M88.765,49.297l3.971,0l4.4,7.082l4.402,-7.082l3.97,0l0,16.743l-3.635,0l0,-10.93l-4.712,7.151l-0.096,0l-4.664,-7.08l0,10.859l-3.636,0l0,-16.743Z" style="fill:#007dc3;fill-rule:nonzero;"/><path d="M107.3,49.297l12.606,0l0,3.276l-8.97,0l0,3.397l7.892,0l0,3.278l-7.892,0l0,3.514l9.09,0l0,3.278l-12.726,0l0,-16.743Z" style="fill:#007dc3;fill-rule:nonzero;"/><path d="M121.818,49.297l3.683,0l0,13.417l8.347,0l0,3.326l-12.03,0l0,-16.743Z" style="fill:#007dc3;fill-rule:nonzero;"/><path d="M143.606,62.811c0.813,0 1.45,-0.148 1.913,-0.443c0.463,-0.294 0.694,-0.752 0.694,-1.374l0,-0.049c0,-0.558 -0.216,-1 -0.647,-1.327c-0.43,-0.326 -1.123,-0.49 -2.081,-0.49l-4.256,0l0,3.683l4.377,0Zm-0.981,-6.744c0.814,0 1.459,-0.142 1.937,-0.419c0.479,-0.28 0.719,-0.73 0.719,-1.352l0,-0.047c0,-0.559 -0.208,-0.985 -0.622,-1.282c-0.414,-0.293 -1.014,-0.441 -1.795,-0.441l-3.635,0l0,3.541l3.396,0Zm-6.985,-6.77l7.76,0c1.926,0 3.382,0.496 4.37,1.483c0.764,0.765 1.145,1.714 1.145,2.845l0,0.049c0,0.478 -0.06,0.902 -0.178,1.268c-0.118,0.368 -0.276,0.697 -0.474,0.992c-0.199,0.297 -0.428,0.554 -0.69,0.779c-0.261,0.223 -0.543,0.414 -0.843,0.572c0.967,0.368 1.73,0.866 2.286,1.495c0.556,0.63 0.832,1.504 0.832,2.62l0,0.047c0,0.765 -0.147,1.436 -0.44,2.011c-0.296,0.573 -0.717,1.052 -1.267,1.434c-0.549,0.383 -1.211,0.669 -1.982,0.861c-0.771,0.192 -1.628,0.287 -2.566,0.287l-7.953,0l0,-16.743Z" style="fill:#007dc3;fill-rule:nonzero;"/><path d="M160.066,62.93c0.735,0 1.412,-0.135 2.034,-0.404c0.622,-0.273 1.151,-0.647 1.591,-1.126c0.439,-0.479 0.78,-1.033 1.029,-1.663c0.247,-0.629 0.37,-1.304 0.37,-2.021l0,-0.048c0,-0.716 -0.123,-1.395 -0.37,-2.033c-0.249,-0.637 -0.598,-1.196 -1.053,-1.673c-0.455,-0.479 -0.992,-0.858 -1.614,-1.137c-0.622,-0.278 -1.301,-0.419 -2.034,-0.419c-0.749,0 -1.43,0.136 -2.045,0.407c-0.613,0.271 -1.14,0.646 -1.578,1.125c-0.439,0.477 -0.782,1.032 -1.029,1.663c-0.247,0.629 -0.371,1.302 -0.371,2.02l0,0.047c0,0.718 0.124,1.397 0.371,2.033c0.247,0.637 0.598,1.197 1.052,1.676c0.454,0.476 0.99,0.856 1.603,1.136c0.614,0.279 1.296,0.417 2.044,0.417m-0.047,3.398c-1.291,0 -2.48,-0.229 -3.563,-0.682c-1.085,-0.453 -2.022,-1.07 -2.812,-1.842c-0.789,-0.773 -1.402,-1.683 -1.842,-2.728c-0.438,-1.043 -0.656,-2.164 -0.656,-3.36l0,-0.048c0,-1.196 0.222,-2.314 0.669,-3.36c0.446,-1.045 1.064,-1.961 1.854,-2.75c0.789,-0.789 1.73,-1.411 2.823,-1.866c1.091,-0.455 2.283,-0.682 3.574,-0.682c1.293,0 2.48,0.227 3.565,0.682c1.084,0.455 2.021,1.068 2.81,1.842c0.789,0.773 1.404,1.682 1.844,2.725c0.436,1.046 0.657,2.165 0.657,3.362l0,0.047c0,1.197 -0.224,2.317 -0.671,3.362c-0.446,1.044 -1.063,1.962 -1.852,2.749c-0.79,0.79 -1.732,1.414 -2.825,1.867c-1.091,0.453 -2.284,0.682 -3.575,0.682" style="fill:#007dc3;fill-rule:nonzero;"/><path d="M177.407,66.305c-2.249,0 -4.018,-0.624 -5.311,-1.866c-1.29,-1.246 -1.936,-3.104 -1.936,-5.574l0,-9.568l3.682,0l0,9.472c0,1.372 0.321,2.404 0.957,3.097c0.637,0.694 1.523,1.041 2.656,1.041c1.131,0 2.016,-0.336 2.655,-1.005c0.638,-0.67 0.956,-1.673 0.956,-3.013l0,-9.592l3.684,0l0,9.449c0,1.275 -0.171,2.382 -0.515,3.323c-0.343,0.942 -0.833,1.726 -1.472,2.357c-0.636,0.63 -1.411,1.1 -2.319,1.412c-0.909,0.31 -1.921,0.467 -3.037,0.467" style="fill:#007dc3;fill-rule:nonzero;"/><path d="M193.957,57.429c0.91,0 1.607,-0.215 2.094,-0.646c0.487,-0.431 0.729,-1.004 0.729,-1.721l0,-0.048c0,-0.797 -0.255,-1.395 -0.765,-1.794c-0.51,-0.399 -1.22,-0.598 -2.13,-0.598l-3.658,0l0,4.807l3.73,0Zm-7.416,-8.132l7.656,0c2.122,0 3.747,0.565 4.879,1.697c0.957,0.958 1.436,2.233 1.436,3.828l0,0.049c0,1.355 -0.332,2.459 -0.993,3.311c-0.662,0.855 -1.526,1.481 -2.595,1.878l4.09,5.98l-4.305,0l-3.589,-5.358l-0.046,0l-2.847,0l0,5.358l-3.686,0l0,-16.743Z" style="fill:#007dc3;fill-rule:nonzero;"/><path d="M202.074,49.297l3.398,0l7.845,10.308l0,-10.308l3.635,0l0,16.743l-3.132,0l-8.111,-10.644l0,10.644l-3.635,0l0,-16.743Z" style="fill:#007dc3;fill-rule:nonzero;"/><path d="M218.746,49.297l12.605,0l0,3.276l-8.969,0l0,3.397l7.892,0l0,3.278l-7.892,0l0,3.514l9.087,0l0,3.278l-12.723,0l0,-16.743Z" style="fill:#007dc3;fill-rule:nonzero;"/><path d="M88.766,27.956l3.916,0l3.441,11.249l3.726,-11.296l3.133,0l3.726,11.296l3.441,-11.249l3.822,0l-5.673,16.732l-3.181,0l-3.749,-10.87l-3.749,10.87l-3.181,0l-5.672,-16.732Z" style="fill:#fff;fill-rule:nonzero;"/><path d="M121.499,36.333c0.918,0 1.629,-0.24 2.136,-0.722c0.507,-0.484 0.76,-1.08 0.76,-1.793l0,-0.048c0,-0.823 -0.266,-1.446 -0.795,-1.874c-0.53,-0.427 -1.254,-0.641 -2.172,-0.641l-2.824,0l0,5.078l2.895,0Zm-6.55,-8.377l6.787,0c0.997,0 1.888,0.138 2.67,0.416c0.783,0.276 1.448,0.668 1.995,1.174c0.546,0.507 0.964,1.111 1.257,1.815c0.292,0.704 0.44,1.484 0.44,2.338l0,0.047c0,0.967 -0.175,1.812 -0.523,2.54c-0.348,0.728 -0.827,1.337 -1.436,1.828c-0.608,0.489 -1.321,0.859 -2.135,1.104c-0.816,0.245 -1.69,0.367 -2.624,0.367l-2.776,0l0,4.984l-3.655,0l0,-16.613Z" style="fill:#fff;fill-rule:nonzero;"/></g></svg>