<?xml version="1.0" encoding="UTF-8" standalone="no"?><!DOCTYPE svg PUBLIC "-//W3C//DTD SVG 1.1//EN" "http://www.w3.org/Graphics/SVG/1.1/DTD/svg11.dtd"><svg width="100%" height="100%" viewBox="0 0 208 75" version="1.1" xmlns="http://www.w3.org/2000/svg" xmlns:xlink="http://www.w3.org/1999/xlink" xml:space="preserve" style="fill-rule:evenodd;clip-rule:evenodd;stroke-linejoin:round;stroke-miterlimit:1.41421;"><g><rect x="14.602" y="0" width="59.297" height="75" style="fill:#cc2027;"/><path d="M47.051,66.108l20.734,-38.966l-14.584,0l-20.734,38.966l14.584,0Z" style="fill:#a51e22;fill-rule:nonzero;"/><path d="M73.932,66.108l0.01,-27.361l-14.594,27.361l14.584,0Z" style="fill:#a51e22;fill-rule:nonzero;"/><path d="M20.459,66.108l20.734,-38.966l-14.584,0l-12.007,22.566l0,16.4l5.857,0Z" style="fill:#a51e22;fill-rule:nonzero;"/><path d="M20.734,66.108l-20.734,-38.966l14.583,0l20.735,38.966l-14.584,0Z" style="fill:#fff;fill-rule:nonzero;"/><path d="M47.326,66.108l-20.735,-38.966l14.584,0l20.735,38.966l-14.584,0Z" style="fill:#fff;fill-rule:nonzero;"/><path d="M73.917,66.108l-20.733,-38.966l14.583,0l20.735,38.966l-14.585,0Z" style="fill:#fff;fill-rule:nonzero;"/><path d="M88.816,27.92l3.91,0l3.437,11.234l3.72,-11.282l3.129,0l3.722,11.282l3.436,-11.234l3.816,0l-5.665,16.709l-3.176,0l-3.745,-10.855l-3.744,10.855l-3.176,0l-5.664,-16.709Z" style="fill:#fff;fill-rule:nonzero;"/><path d="M115.499,27.92l6.779,0c3.958,0 6.352,2.346 6.352,5.735l0,0.047c0,3.84 -2.986,5.831 -6.707,5.831l-2.773,0l0,4.977l-3.651,0l0,-16.59Zm6.542,8.366c1.826,0 2.892,-1.09 2.892,-2.512l0,-0.047c0,-1.635 -1.138,-2.512 -2.963,-2.512l-2.82,0l0,5.072l2.891,-0.001Z" style="fill:#fff;fill-rule:nonzero;"/><path d="M95.783,49.343l3.366,0l7.111,16.709l-3.816,0l-1.517,-3.72l-7.016,0l-1.517,3.72l-3.721,0l7.11,-16.709Zm3.84,9.765l-2.204,-5.381l-2.205,5.381l4.409,0Z" style="fill:#cc2027;fill-rule:nonzero;"/><path d="M107.632,49.462l6.47,0c5.214,0 8.818,3.578 8.818,8.247l0,0.048c0,4.669 -3.604,8.295 -8.818,8.295l-6.47,0l0,-16.59Zm3.65,3.294l0,10.002l2.82,0c0.093,0.005 0.187,0.008 0.28,0.008c2.593,0 4.728,-2.134 4.728,-4.727c0,-0.078 -0.002,-0.156 -0.006,-0.234l0,-0.048c0.004,-0.081 0.006,-0.162 0.006,-0.243c0,-2.613 -2.151,-4.764 -4.765,-4.764c-0.081,0 -0.162,0.002 -0.243,0.006l-2.82,0Z" style="fill:#cc2027;fill-rule:nonzero;"/><path d="M124.979,49.462l12.514,0l0,3.246l-8.888,0l0,3.366l7.822,0l0,3.248l-7.822,0l0,3.483l9.007,0l0,3.248l-12.633,0l0,-16.591Z" style="fill:#cc2027;fill-rule:nonzero;"/><path d="M139.672,49.462l3.65,0l0,13.272l8.273,0l0,3.318l-11.923,0l0,-16.59Z" style="fill:#cc2027;fill-rule:nonzero;"/><path d="M158.844,49.343l3.366,0l7.11,16.709l-3.816,0l-1.517,-3.72l-7.015,0l-1.517,3.72l-3.721,0l7.11,-16.709Zm3.84,9.765l-2.205,-5.381l-2.203,5.381l4.408,0Z" style="fill:#cc2027;fill-rule:nonzero;"/><rect x="170.859" y="49.462" width="3.65" height="16.591" style="fill:#cc2027;fill-rule:nonzero;"/><path d="M177.471,49.462l6.471,0c5.214,0 8.816,3.578 8.816,8.247l0,0.048c0,4.669 -3.602,8.295 -8.816,8.295l-6.471,0l0,-16.59Zm3.65,3.294l0,10.002l2.821,0c0.093,0.005 0.186,0.008 0.279,0.008c2.593,0 4.727,-2.134 4.727,-4.727c0,-0.078 -0.002,-0.156 -0.005,-0.234l0,-0.048c0.004,-0.081 0.006,-0.162 0.006,-0.242c0,-2.614 -2.151,-4.765 -4.765,-4.765c-0.081,0 -0.161,0.002 -0.242,0.006l-2.821,0Z" style="fill:#cc2027;fill-rule:nonzero;"/><path d="M194.818,49.462l12.515,0l0,3.246l-8.889,0l0,3.366l7.822,0l0,3.248l-7.822,0l0,3.483l9.007,0l0,3.248l-12.633,0l0,-16.591Z" style="fill:#cc2027;fill-rule:nonzero;"/></g></svg>