<?xml version="1.0" encoding="UTF-8" standalone="no"?><!DOCTYPE svg PUBLIC "-//W3C//DTD SVG 1.1//EN" "http://www.w3.org/Graphics/SVG/1.1/DTD/svg11.dtd"><svg width="100%" height="100%" viewBox="0 0 196 68" version="1.1" xmlns="http://www.w3.org/2000/svg" xmlns:xlink="http://www.w3.org/1999/xlink" xml:space="preserve" style="fill-rule:evenodd;clip-rule:evenodd;stroke-linejoin:round;stroke-miterlimit:1.41421;"><rect x="13.171" y="0" width="53.483" height="67.645" style="fill:#8cc63f;fill-rule:nonzero;"/><path d="M42.439,59.625l18.702,-35.144l-13.155,0l-18.701,35.144l13.154,0Z" style="fill:#70a025;fill-rule:nonzero;"/><path d="M66.684,59.625l0.009,-24.678l-13.163,24.678l13.154,0Z" style="fill:#70a025;fill-rule:nonzero;"/><path d="M18.454,59.625l18.702,-35.144l-13.155,0l-10.83,20.352l0,14.792l5.283,0Z" style="fill:#70a025;fill-rule:nonzero;"/><path d="M18.703,59.625l-18.703,-35.144l13.155,0l18.701,35.144l-13.153,0Z" style="fill:#fff;fill-rule:nonzero;"/><path d="M42.687,59.625l-18.702,-35.144l13.155,0l18.701,35.144l-13.154,0Z" style="fill:#fff;fill-rule:nonzero;"/><path d="M66.671,59.625l-18.701,-35.144l13.154,0l18.702,35.144l-13.155,0Z" style="fill:#fff;fill-rule:nonzero;"/><path d="M89.822,53.371l-1.991,-4.859l-1.991,4.859l3.982,0Zm-3.468,-8.82l3.039,0l6.422,15.091l-3.446,0l-1.371,-3.36l-6.335,0l-1.37,3.36l-3.359,0.001l6.42,-15.092Z" style="fill:#8cc63f;fill-rule:nonzero;"/><path d="M101.972,59.878c-2.013,0 -3.597,-0.556 -4.752,-1.669c-1.156,-1.114 -1.734,-2.777 -1.734,-4.989l0,-8.562l3.296,0l0,8.478c0,1.227 0.286,2.15 0.856,2.771c0.57,0.621 1.362,0.931 2.376,0.931c1.014,0 1.806,-0.3 2.376,-0.899c0.571,-0.599 0.857,-1.497 0.857,-2.697l0,-8.584l3.296,0l0,8.455c0,1.143 -0.153,2.135 -0.46,2.975c-0.308,0.844 -0.746,1.546 -1.317,2.11c-0.57,0.564 -1.263,0.984 -2.076,1.262c-0.813,0.279 -1.719,0.418 -2.718,0.418" style="fill:#8cc63f;fill-rule:nonzero;"/><path d="M115.777,59.856c-1.141,0 -2.263,-0.195 -3.361,-0.587c-1.098,-0.393 -2.097,-0.996 -2.997,-1.809l1.948,-2.334c0.686,0.557 1.388,0.999 2.109,1.327c0.721,0.328 1.509,0.492 2.365,0.492c0.685,0 1.217,-0.124 1.595,-0.375c0.378,-0.249 0.567,-0.594 0.567,-1.037l0,-0.043c0,-0.214 -0.04,-0.403 -0.118,-0.567c-0.079,-0.165 -0.229,-0.318 -0.45,-0.46c-0.222,-0.143 -0.531,-0.286 -0.924,-0.428c-0.393,-0.144 -0.905,-0.293 -1.533,-0.45c-0.759,-0.184 -1.446,-0.393 -2.061,-0.621c-0.616,-0.228 -1.138,-0.51 -1.567,-0.845c-0.43,-0.336 -0.762,-0.753 -0.998,-1.252c-0.237,-0.5 -0.354,-1.121 -0.354,-1.864l0,-0.041c0,-0.685 0.127,-1.302 0.382,-1.853c0.256,-0.548 0.614,-1.022 1.073,-1.423c0.462,-0.399 1.012,-0.707 1.652,-0.921c0.64,-0.213 1.344,-0.321 2.116,-0.321c1.099,0 2.108,0.165 3.028,0.492c0.92,0.329 1.766,0.801 2.537,1.414l-1.712,2.483c-0.671,-0.457 -1.327,-0.817 -1.97,-1.081c-0.642,-0.265 -1.283,-0.395 -1.927,-0.395c-0.641,0 -1.123,0.124 -1.444,0.373c-0.321,0.251 -0.482,0.56 -0.482,0.932l0,0.042c0,0.243 0.047,0.454 0.139,0.632c0.094,0.178 0.261,0.34 0.505,0.481c0.243,0.144 0.576,0.279 0.998,0.408c0.422,0.129 0.955,0.278 1.599,0.45c0.758,0.198 1.435,0.423 2.028,0.673c0.594,0.251 1.094,0.55 1.503,0.899c0.407,0.349 0.715,0.759 0.923,1.231c0.207,0.47 0.311,1.034 0.311,1.691l0,0.044c0,0.741 -0.135,1.402 -0.404,1.978c-0.27,0.579 -0.646,1.064 -1.127,1.457c-0.482,0.392 -1.058,0.691 -1.726,0.899c-0.669,0.206 -1.409,0.309 -2.223,0.309" style="fill:#8cc63f;fill-rule:nonzero;"/><path d="M126.261,47.698l-4.559,0l0,-3.04l12.415,0l0,3.04l-4.559,0l0,11.945l-3.297,0l0,-11.945Z" style="fill:#8cc63f;fill-rule:nonzero;"/><path d="M141.555,51.936c0.813,0 1.437,-0.192 1.873,-0.578c0.435,-0.384 0.652,-0.899 0.652,-1.54l0,-0.043c0,-0.713 -0.228,-1.249 -0.685,-1.605c-0.456,-0.358 -1.092,-0.536 -1.905,-0.536l-3.275,0l0,4.302l3.34,0Zm-6.636,-7.277l6.85,0c1.897,0 3.353,0.507 4.366,1.52c0.857,0.856 1.285,1.998 1.285,3.425l0,0.042c0,1.213 -0.296,2.202 -0.888,2.965c-0.593,0.763 -1.367,1.324 -2.323,1.681l3.661,5.35l-3.854,0l-3.21,-4.794l-0.044,0l-2.547,0l0,4.794l-3.296,0l0,-14.983Z" style="fill:#8cc63f;fill-rule:nonzero;"/><path d="M158.206,53.371l-1.992,-4.859l-1.99,4.859l3.982,0Zm-3.469,-8.82l3.04,0l6.421,15.091l-3.445,0l-1.371,-3.36l-6.336,0l-1.37,3.36l-3.361,0l6.422,-15.091Z" style="fill:#8cc63f;fill-rule:nonzero;"/><path d="M164.719,44.659l3.297,0l0,12.009l7.47,0l0,2.975l-10.767,0l0,-14.984Z" style="fill:#8cc63f;fill-rule:nonzero;"/><rect x="176.288" y="44.659" width="3.297" height="14.984" style="fill:#8cc63f;fill-rule:nonzero;"/><path d="M190.008,53.371l-1.991,-4.859l-1.991,4.859l3.982,0Zm-3.468,-8.82l3.04,0l6.421,15.091l-3.446,0l-1.37,-3.36l-6.336,0l-1.37,3.36l-3.361,0l6.422,-15.091Z" style="fill:#8cc63f;fill-rule:nonzero;"/><path d="M80.061,25.213l3.531,0l3.105,10.146l3.36,-10.189l2.826,0l3.36,10.189l3.104,-10.146l3.447,0l-5.117,15.092l-2.868,0l-3.382,-9.804l-3.382,9.804l-2.869,0l-5.115,-15.092Z" style="fill:#4d4d4d;fill-rule:nonzero;"/><path d="M109.584,32.77c0.828,0 1.469,-0.218 1.926,-0.653c0.457,-0.435 0.685,-0.975 0.685,-1.616l0,-0.043c0,-0.742 -0.239,-1.306 -0.717,-1.692c-0.477,-0.385 -1.131,-0.576 -1.959,-0.576l-2.547,0l0,4.58l2.612,0Zm-5.908,-7.557l6.122,0c0.899,0 1.702,0.126 2.408,0.375c0.706,0.25 1.306,0.604 1.799,1.059c0.492,0.457 0.869,1.003 1.133,1.638c0.264,0.635 0.397,1.337 0.397,2.109l0,0.043c0,0.87 -0.157,1.632 -0.471,2.289c-0.314,0.656 -0.746,1.207 -1.295,1.65c-0.549,0.441 -1.192,0.773 -1.926,0.994c-0.736,0.223 -1.524,0.332 -2.366,0.332l-2.505,0l0,4.494l-3.296,0l0,-14.983Z" style="fill:#4d4d4d;fill-rule:nonzero;"/></svg>