<?xml version="1.0" encoding="UTF-8" standalone="no"?><!DOCTYPE svg PUBLIC "-//W3C//DTD SVG 1.1//EN" "http://www.w3.org/Graphics/SVG/1.1/DTD/svg11.dtd"><svg width="100%" height="100%" viewBox="0 0 209 68" version="1.1" xmlns="http://www.w3.org/2000/svg" xmlns:xlink="http://www.w3.org/1999/xlink" xml:space="preserve" style="fill-rule:evenodd;clip-rule:evenodd;stroke-linejoin:round;stroke-miterlimit:1.41421;"><rect x="13.171" y="0" width="53.483" height="67.645" style="fill:#007dc3;fill-rule:nonzero;"/><path d="M42.439,59.625l18.702,-35.144l-13.155,0l-18.701,35.144l13.154,0Z" style="fill:#00688c;fill-rule:nonzero;"/><path d="M66.684,59.625l0.009,-24.678l-13.163,24.678l13.154,0Z" style="fill:#00688c;fill-rule:nonzero;"/><path d="M18.454,59.625l18.702,-35.144l-13.155,0l-10.83,20.352l0,14.792l5.283,0Z" style="fill:#00688c;fill-rule:nonzero;"/><path d="M18.703,59.625l-18.703,-35.144l13.155,0l18.701,35.144l-13.153,0Z" style="fill:#fff;fill-rule:nonzero;"/><path d="M42.687,59.625l-18.702,-35.144l13.155,0l18.701,35.144l-13.154,0Z" style="fill:#fff;fill-rule:nonzero;"/><path d="M66.671,59.625l-18.701,-35.144l13.154,0l18.702,35.144l-13.155,0Z" style="fill:#fff;fill-rule:nonzero;"/><path d="M80.06,44.462l3.581,0l3.969,6.387l3.97,-6.387l3.581,0l0,15.102l-3.279,0l0,-9.859l-4.249,6.45l-0.087,0l-4.207,-6.386l0,9.795l-3.279,0l0,-15.102Z" style="fill:#007dc3;fill-rule:nonzero;"/><path d="M96.777,44.462l11.37,0l0,2.955l-8.091,0l0,3.064l7.119,0l0,2.957l-7.119,0l0,3.169l8.199,0l0,2.957l-11.478,0l0,-15.102Z" style="fill:#007dc3;fill-rule:nonzero;"/><path d="M109.871,44.462l3.322,0l0,12.102l7.529,0l0,3l-10.851,0l0,-15.102Z" style="fill:#007dc3;fill-rule:nonzero;"/><path d="M129.523,56.651c0.733,0 1.308,-0.133 1.725,-0.399c0.417,-0.266 0.626,-0.678 0.626,-1.24l0,-0.044c0,-0.504 -0.195,-0.902 -0.584,-1.197c-0.387,-0.294 -1.012,-0.442 -1.876,-0.442l-3.839,0l0,3.322l3.948,0Zm-0.885,-6.083c0.734,0 1.316,-0.127 1.747,-0.378c0.432,-0.252 0.648,-0.658 0.648,-1.219l0,-0.042c0,-0.504 -0.187,-0.889 -0.561,-1.156c-0.373,-0.265 -0.914,-0.398 -1.618,-0.398l-3.279,0l0,3.193l3.063,0Zm-6.3,-6.106l6.999,0c1.737,0 3.051,0.447 3.942,1.338c0.688,0.69 1.032,1.545 1.032,2.566l0,0.044c0,0.431 -0.054,0.813 -0.16,1.144c-0.107,0.332 -0.25,0.629 -0.428,0.895c-0.18,0.267 -0.386,0.499 -0.622,0.702c-0.236,0.201 -0.49,0.373 -0.761,0.516c0.873,0.332 1.56,0.781 2.062,1.348c0.501,0.569 0.751,1.357 0.751,2.364l0,0.042c0,0.69 -0.133,1.295 -0.398,1.813c-0.267,0.518 -0.646,0.95 -1.142,1.294c-0.496,0.346 -1.092,0.604 -1.788,0.776c-0.695,0.173 -1.468,0.26 -2.314,0.26l-7.173,0l0,-15.102Z" style="fill:#007dc3;fill-rule:nonzero;"/><path d="M144.369,56.758c0.662,0 1.272,-0.121 1.834,-0.364c0.561,-0.246 1.038,-0.584 1.435,-1.016c0.396,-0.432 0.703,-0.931 0.928,-1.5c0.222,-0.567 0.333,-1.176 0.333,-1.822l0,-0.044c0,-0.645 -0.111,-1.258 -0.333,-1.833c-0.225,-0.575 -0.54,-1.079 -0.95,-1.509c-0.41,-0.432 -0.895,-0.774 -1.456,-1.026c-0.561,-0.25 -1.173,-0.378 -1.834,-0.378c-0.676,0 -1.29,0.123 -1.844,0.368c-0.554,0.244 -1.029,0.583 -1.424,1.014c-0.396,0.43 -0.705,0.931 -0.928,1.5c-0.223,0.568 -0.335,1.174 -0.335,1.822l0,0.042c0,0.648 0.112,1.26 0.335,1.834c0.223,0.575 0.54,1.08 0.949,1.512c0.41,0.429 0.893,0.772 1.445,1.024c0.555,0.252 1.17,0.376 1.845,0.376m-0.043,3.065c-1.164,0 -2.237,-0.206 -3.214,-0.615c-0.978,-0.409 -1.823,-0.965 -2.536,-1.661c-0.711,-0.698 -1.265,-1.518 -1.661,-2.46c-0.395,-0.942 -0.592,-1.953 -0.592,-3.031l0,-0.044c0,-1.078 0.2,-2.087 0.603,-3.03c0.402,-0.942 0.96,-1.769 1.673,-2.481c0.711,-0.711 1.56,-1.272 2.545,-1.683c0.985,-0.41 2.06,-0.615 3.225,-0.615c1.166,0 2.236,0.205 3.215,0.615c0.977,0.411 1.822,0.964 2.534,1.662c0.712,0.697 1.266,1.517 1.663,2.457c0.394,0.944 0.593,1.953 0.593,3.033l0,0.042c0,1.08 -0.202,2.091 -0.605,3.033c-0.403,0.942 -0.959,1.769 -1.671,2.479c-0.713,0.713 -1.562,1.275 -2.548,1.684c-0.984,0.409 -2.059,0.615 -3.224,0.615" style="fill:#007dc3;fill-rule:nonzero;"/><path d="M160.009,59.802c-2.029,0 -3.624,-0.562 -4.79,-1.683c-1.164,-1.123 -1.746,-2.799 -1.746,-5.027l0,-8.629l3.321,0l0,8.542c0,1.238 0.288,2.168 0.862,2.794c0.575,0.625 1.374,0.939 2.396,0.939c1.02,0 1.818,-0.303 2.394,-0.907c0.576,-0.604 0.863,-1.509 0.863,-2.717l0,-8.651l3.322,0l0,8.522c0,1.15 -0.153,2.149 -0.464,2.997c-0.309,0.85 -0.751,1.557 -1.327,2.125c-0.574,0.569 -1.273,0.993 -2.092,1.274c-0.82,0.28 -1.733,0.421 -2.739,0.421" style="fill:#007dc3;fill-rule:nonzero;"/><path d="M174.936,51.797c0.82,0 1.449,-0.194 1.888,-0.583c0.44,-0.388 0.658,-0.905 0.658,-1.552l0,-0.043c0,-0.719 -0.23,-1.259 -0.69,-1.619c-0.461,-0.359 -1.1,-0.539 -1.921,-0.539l-3.3,0l0,4.336l3.365,0Zm-6.689,-7.334l6.905,0c1.914,0 3.38,0.509 4.401,1.53c0.863,0.864 1.295,2.014 1.295,3.453l0,0.044c0,1.222 -0.299,2.218 -0.896,2.986c-0.597,0.771 -1.376,1.335 -2.34,1.694l3.688,5.393l-3.883,0l-3.236,-4.832l-0.042,0l-2.568,0l0,4.832l-3.324,0l0,-15.1Z" style="fill:#007dc3;fill-rule:nonzero;"/><path d="M182.257,44.462l3.064,0l7.076,9.297l0,-9.297l3.278,0l0,15.102l-2.824,0l-7.316,-9.601l0,9.601l-3.278,0l0,-15.102Z" style="fill:#007dc3;fill-rule:nonzero;"/><path d="M197.294,44.462l11.368,0l0,2.955l-8.089,0l0,3.064l7.118,0l0,2.957l-7.118,0l0,3.169l8.196,0l0,2.957l-11.476,0l0,-15.102Z" style="fill:#007dc3;fill-rule:nonzero;"/><path d="M80.061,25.214l3.531,0l3.105,10.146l3.36,-10.188l2.826,0l3.36,10.188l3.104,-10.146l3.447,0l-5.117,15.091l-2.868,0l-3.382,-9.804l-3.382,9.804l-2.869,0l-5.115,-15.091Z" style="fill:#4d4d4d;fill-rule:nonzero;"/><path d="M109.584,32.77c0.828,0 1.469,-0.217 1.926,-0.652c0.457,-0.436 0.685,-0.974 0.685,-1.617l0,-0.042c0,-0.743 -0.239,-1.305 -0.717,-1.691c-0.477,-0.385 -1.131,-0.578 -1.959,-0.578l-2.547,0l0,4.58l2.612,0Zm-5.908,-7.555l6.122,0c0.899,0 1.702,0.124 2.408,0.375c0.706,0.249 1.306,0.602 1.799,1.059c0.492,0.456 0.869,1.002 1.133,1.637c0.264,0.634 0.397,1.338 0.397,2.108l0,0.043c0,0.871 -0.157,1.634 -0.471,2.29c-0.314,0.657 -0.746,1.206 -1.295,1.649c-0.549,0.442 -1.192,0.775 -1.926,0.996c-0.736,0.221 -1.524,0.331 -2.366,0.331l-2.505,0l0,4.495l-3.296,0l0,-14.983Z" style="fill:#4d4d4d;fill-rule:nonzero;"/></svg>