<?xml version="1.0" encoding="UTF-8" standalone="no"?><!DOCTYPE svg PUBLIC "-//W3C//DTD SVG 1.1//EN" "http://www.w3.org/Graphics/SVG/1.1/DTD/svg11.dtd"><svg width="100%" height="100%" viewBox="0 0 314 100" version="1.1" xmlns="http://www.w3.org/2000/svg" xmlns:xlink="http://www.w3.org/1999/xlink" xml:space="preserve" style="fill-rule:evenodd;clip-rule:evenodd;stroke-linejoin:round;stroke-miterlimit:1.41421;"><g><rect x="19.471" y="0" width="79.063" height="100" style="fill:#00adef;"/><path d="M62.705,88.107l27.627,-51.916l-19.433,0l-27.626,51.916l19.432,0Z" style="fill:#008fcf;fill-rule:nonzero;"/><path d="M98.52,88.107l0.013,-36.455l-19.445,36.455l19.432,0Z" style="fill:#008fcf;fill-rule:nonzero;"/><path d="M27.273,88.107l27.627,-51.916l-19.432,0l-15.997,30.065l0,21.851l7.802,0Z" style="fill:#008fcf;fill-rule:nonzero;"/><path d="M27.648,88.144l-27.648,-51.953l19.447,0l27.645,51.953l-19.444,0Z" style="fill:#fff;fill-rule:nonzero;"/><path d="M63.103,88.144l-27.647,-51.953l19.447,0l27.645,51.953l-19.445,0Z" style="fill:#fff;fill-rule:nonzero;"/><path d="M98.559,88.144l-27.646,-51.953l19.446,0l27.645,51.953l-19.445,0Z" style="fill:#fff;fill-rule:nonzero;"/><path d="M118.352,37.271l5.221,0l4.588,14.998l4.968,-15.062l4.178,0l4.968,15.062l4.588,-14.998l5.094,0l-7.562,22.31l-4.242,0l-4.998,-14.493l-5,14.493l-4.24,0l-7.563,-22.31l0,0Z" style="fill:#4d4d4d;fill-rule:nonzero;"/><path d="M161.996,48.441c1.224,0 2.172,-0.322 2.847,-0.965c0.676,-0.643 1.013,-1.44 1.013,-2.388l0,-0.063c0,-1.098 -0.353,-1.932 -1.06,-2.501c-0.707,-0.571 -1.672,-0.853 -2.896,-0.853l-3.765,0l0,6.77l3.861,0Zm-8.733,-11.17l9.049,0c1.329,0 2.516,0.186 3.56,0.554c1.043,0.37 1.929,0.892 2.659,1.566c0.728,0.674 1.285,1.482 1.676,2.421c0.39,0.939 0.586,1.976 0.586,3.117l0,0.063c0,1.287 -0.233,2.415 -0.696,3.384c-0.465,0.971 -1.104,1.785 -1.914,2.44c-0.812,0.652 -1.763,1.143 -2.848,1.469c-1.088,0.33 -2.254,0.492 -3.498,0.492l-3.702,0l0,6.643l-4.872,0l0,-22.149l0,0Z" style="fill:#4d4d4d;fill-rule:nonzero;"/><g><path d="M129.048,88.363c-1.729,0 -3.305,-0.286 -4.729,-0.855c-1.423,-0.569 -2.647,-1.36 -3.67,-2.373c-1.022,-1.012 -1.818,-2.214 -2.388,-3.606c-0.569,-1.392 -0.854,-2.91 -0.854,-4.556l0,-0.062c0,-1.583 0.29,-3.064 0.87,-4.446c0.58,-1.381 1.387,-2.593 2.42,-3.637c1.034,-1.044 2.256,-1.867 3.67,-2.468c1.413,-0.601 2.962,-0.901 4.65,-0.901c0.991,0 1.892,0.068 2.704,0.205c0.812,0.137 1.567,0.332 2.263,0.585c0.696,0.254 1.349,0.57 1.961,0.95c0.612,0.378 1.202,0.812 1.771,1.296l-3.068,3.701c-0.421,-0.359 -0.844,-0.675 -1.265,-0.948c-0.422,-0.275 -0.86,-0.507 -1.314,-0.696c-0.453,-0.191 -0.942,-0.337 -1.47,-0.444c-0.527,-0.105 -1.107,-0.157 -1.74,-0.157c-0.886,0 -1.714,0.184 -2.483,0.553c-0.771,0.369 -1.445,0.865 -2.025,1.487c-0.58,0.622 -1.034,1.349 -1.36,2.182c-0.327,0.834 -0.491,1.724 -0.491,2.674l0,0.064c0,1.012 0.164,1.945 0.491,2.798c0.326,0.855 0.79,1.599 1.392,2.231c0.601,0.633 1.308,1.123 2.118,1.471c0.812,0.348 1.715,0.522 2.706,0.522c1.813,0 3.342,-0.442 4.586,-1.329l0,-3.163l-4.902,0l0,-4.208l9.617,0l0,9.618c-1.139,0.97 -2.495,1.797 -4.065,2.482c-1.572,0.687 -3.37,1.03 -5.395,1.03l0,0Z" style="fill:#00adef;fill-rule:nonzero;"/><path d="M151.636,83.869c0.971,0 1.867,-0.178 2.689,-0.537c0.823,-0.359 1.524,-0.855 2.104,-1.487c0.58,-0.633 1.034,-1.365 1.36,-2.198c0.327,-0.834 0.491,-1.724 0.491,-2.674l0,-0.062c0,-0.95 -0.164,-1.846 -0.491,-2.69c-0.326,-0.844 -0.79,-1.581 -1.392,-2.214c-0.601,-0.632 -1.313,-1.134 -2.136,-1.503c-0.821,-0.369 -1.718,-0.553 -2.688,-0.553c-0.992,0 -1.893,0.178 -2.705,0.537c-0.812,0.359 -1.508,0.855 -2.088,1.487c-0.58,0.633 -1.033,1.365 -1.36,2.198c-0.327,0.834 -0.491,1.724 -0.491,2.674l0,0.064c0,0.948 0.164,1.845 0.491,2.688c0.327,0.844 0.791,1.582 1.392,2.214c0.601,0.634 1.308,1.134 2.119,1.503c0.812,0.369 1.714,0.553 2.705,0.553l0,0Zm-0.063,4.494c-1.709,0 -3.28,-0.302 -4.714,-0.903c-1.434,-0.6 -2.672,-1.412 -3.716,-2.436c-1.044,-1.023 -1.856,-2.224 -2.436,-3.605c-0.58,-1.382 -0.871,-2.864 -0.871,-4.446l0,-0.062c0,-1.583 0.296,-3.064 0.887,-4.446c0.589,-1.381 1.406,-2.593 2.45,-3.637c1.044,-1.044 2.29,-1.867 3.734,-2.468c1.445,-0.601 3.021,-0.901 4.729,-0.901c1.708,0 3.28,0.3 4.713,0.901c1.435,0.601 2.674,1.413 3.718,2.436c1.044,1.023 1.856,2.225 2.436,3.607c0.58,1.381 0.87,2.862 0.87,4.444l0,0.064c0,1.581 -0.296,3.062 -0.886,4.444c-0.591,1.381 -1.408,2.594 -2.452,3.638c-1.044,1.044 -2.288,1.867 -3.732,2.467c-1.446,0.601 -3.022,0.903 -4.73,0.903Z" style="fill:#00adef;fill-rule:nonzero;"/><path d="M165.335,65.837l4.87,0l0,17.716l11.042,0l0,4.43l-15.912,0l0,-22.146Z" style="fill:#00adef;fill-rule:nonzero;"/><path d="M191.18,83.585c0.991,0 1.899,-0.158 2.721,-0.474c0.822,-0.316 1.523,-0.77 2.103,-1.36c0.58,-0.591 1.033,-1.287 1.361,-2.088c0.327,-0.802 0.49,-1.699 0.49,-2.69l0,-0.062c0,-0.971 -0.163,-1.867 -0.49,-2.69c-0.328,-0.822 -0.781,-1.529 -1.361,-2.12c-0.58,-0.59 -1.281,-1.049 -2.103,-1.376c-0.822,-0.326 -1.73,-0.49 -2.721,-0.49l-3.764,0l0,13.35l3.764,0Zm-8.636,-17.748l8.636,0c1.729,0 3.316,0.28 4.761,0.839c1.444,0.559 2.69,1.335 3.734,2.325c1.044,0.991 1.85,2.156 2.42,3.496c0.569,1.339 0.853,2.79 0.853,4.35l0,0.064c0,1.56 -0.284,3.016 -0.853,4.365c-0.57,1.349 -1.376,2.52 -2.42,3.511c-1.044,0.992 -2.29,1.772 -3.734,2.341c-1.445,0.569 -3.032,0.855 -4.761,0.855l-8.636,0l0,-22.146l0,0Z" style="fill:#00adef;fill-rule:nonzero;"/><path d="M221.269,88.363c-1.624,0 -3.132,-0.296 -4.524,-0.887c-1.392,-0.591 -2.593,-1.397 -3.606,-2.42c-1.012,-1.023 -1.803,-2.231 -2.372,-3.623c-0.57,-1.39 -0.855,-2.878 -0.855,-4.46l0,-0.062c0,-1.583 0.285,-3.064 0.855,-4.446c0.569,-1.381 1.36,-2.593 2.372,-3.637c1.013,-1.044 2.225,-1.867 3.638,-2.468c1.414,-0.601 2.974,-0.901 4.682,-0.901c1.033,0 1.977,0.084 2.832,0.252c0.853,0.169 1.629,0.401 2.325,0.696c0.696,0.296 1.339,0.654 1.929,1.076c0.591,0.422 1.139,0.886 1.646,1.392l-3.1,3.574c-0.866,-0.78 -1.746,-1.392 -2.642,-1.834c-0.897,-0.443 -1.904,-0.664 -3.021,-0.664c-0.928,0 -1.788,0.178 -2.579,0.537c-0.79,0.359 -1.47,0.855 -2.04,1.487c-0.569,0.633 -1.013,1.365 -1.329,2.198c-0.316,0.834 -0.475,1.724 -0.475,2.674l0,0.064c0,0.948 0.159,1.845 0.475,2.688c0.316,0.844 0.755,1.582 1.313,2.214c0.559,0.634 1.234,1.134 2.024,1.503c0.791,0.369 1.662,0.553 2.611,0.553c1.265,0 2.335,-0.232 3.211,-0.696c0.874,-0.464 1.745,-1.096 2.609,-1.897l3.1,3.132c-0.569,0.611 -1.159,1.16 -1.771,1.645c-0.612,0.484 -1.281,0.902 -2.009,1.25c-0.728,0.348 -1.524,0.61 -2.388,0.79c-0.865,0.179 -1.835,0.27 -2.911,0.27l0,0Z" style="fill:#00adef;fill-rule:nonzero;"/><path d="M242.687,83.869c0.969,0 1.866,-0.178 2.688,-0.537c0.822,-0.359 1.524,-0.855 2.104,-1.487c0.58,-0.633 1.033,-1.365 1.361,-2.198c0.327,-0.834 0.489,-1.724 0.489,-2.674l0,-0.062c0,-0.95 -0.162,-1.846 -0.489,-2.69c-0.328,-0.844 -0.792,-1.581 -1.392,-2.214c-0.601,-0.632 -1.313,-1.134 -2.136,-1.503c-0.823,-0.369 -1.719,-0.553 -2.689,-0.553c-0.991,0 -1.892,0.178 -2.704,0.537c-0.812,0.359 -1.508,0.855 -2.088,1.487c-0.58,0.633 -1.034,1.365 -1.36,2.198c-0.328,0.834 -0.491,1.724 -0.491,2.674l0,0.064c0,0.948 0.163,1.845 0.491,2.688c0.326,0.844 0.79,1.582 1.39,2.214c0.602,0.634 1.308,1.134 2.12,1.503c0.812,0.369 1.714,0.553 2.706,0.553l0,0Zm-0.064,4.494c-1.708,0 -3.279,-0.302 -4.714,-0.903c-1.434,-0.6 -2.673,-1.412 -3.717,-2.436c-1.044,-1.023 -1.856,-2.224 -2.436,-3.605c-0.58,-1.382 -0.869,-2.864 -0.869,-4.446l0,-0.062c0,-1.583 0.294,-3.064 0.885,-4.446c0.591,-1.381 1.408,-2.593 2.452,-3.637c1.044,-1.044 2.288,-1.867 3.733,-2.468c1.444,-0.601 3.022,-0.901 4.73,-0.901c1.708,0 3.278,0.3 4.713,0.901c1.435,0.601 2.673,1.413 3.717,2.436c1.044,1.023 1.856,2.225 2.436,3.607c0.58,1.381 0.87,2.862 0.87,4.444l0,0.064c0,1.581 -0.295,3.062 -0.886,4.444c-0.59,1.381 -1.408,2.594 -2.452,3.638c-1.044,1.044 -2.288,1.867 -3.733,2.467c-1.444,0.601 -3.02,0.903 -4.729,0.903l0,0Z" style="fill:#00adef;fill-rule:nonzero;"/><path d="M269.101,78.713l-2.941,-7.181l-2.943,7.181l5.884,0Zm-5.124,-13.033l4.492,0l9.491,22.303l-5.093,0l-2.026,-4.967l-9.364,0l-2.024,4.967l-4.966,0l9.49,-22.303Z" style="fill:#00adef;fill-rule:nonzero;"/><path d="M286.88,88.299c-1.687,0 -3.343,-0.29 -4.967,-0.87c-1.622,-0.58 -3.1,-1.472 -4.428,-2.673l2.879,-3.448c1.012,0.821 2.051,1.476 3.116,1.961c1.065,0.484 2.231,0.727 3.496,0.727c1.012,0 1.797,-0.184 2.356,-0.553c0.559,-0.37 0.839,-0.88 0.839,-1.535l0,-0.063c0,-0.316 -0.058,-0.596 -0.174,-0.838c-0.116,-0.243 -0.338,-0.47 -0.665,-0.68c-0.327,-0.211 -0.78,-0.422 -1.36,-0.632c-0.58,-0.212 -1.333,-0.434 -2.261,-0.666c-1.119,-0.273 -2.131,-0.58 -3.038,-0.917c-0.906,-0.337 -1.677,-0.753 -2.309,-1.249c-0.633,-0.496 -1.123,-1.112 -1.471,-1.851c-0.348,-0.739 -0.522,-1.656 -0.522,-2.752l0,-0.064c0,-1.012 0.189,-1.924 0.569,-2.736c0.38,-0.812 0.912,-1.513 1.597,-2.104c0.686,-0.591 1.503,-1.044 2.452,-1.36c0.95,-0.316 1.994,-0.475 3.132,-0.475c1.624,0 3.116,0.243 4.476,0.728c1.362,0.486 2.611,1.182 3.75,2.088l-2.531,3.67c-0.992,-0.675 -1.961,-1.208 -2.911,-1.598c-0.949,-0.39 -1.898,-0.585 -2.846,-0.585c-0.95,0 -1.662,0.184 -2.136,0.553c-0.475,0.37 -0.712,0.828 -0.712,1.376l0,0.064c0,0.359 0.069,0.67 0.205,0.934c0.137,0.262 0.385,0.5 0.744,0.71c0.359,0.212 0.849,0.412 1.471,0.602c0.622,0.19 1.408,0.412 2.357,0.665c1.117,0.295 2.115,0.627 2.989,0.996c0.875,0.369 1.614,0.812 2.215,1.328c0.601,0.517 1.055,1.124 1.36,1.82c0.305,0.696 0.459,1.528 0.459,2.499l0,0.062c0,1.098 -0.2,2.074 -0.602,2.927c-0.4,0.855 -0.958,1.572 -1.676,2.152c-0.717,0.58 -1.572,1.023 -2.562,1.328c-0.991,0.305 -2.088,0.459 -3.291,0.459l0,0Z" style="fill:#00adef;fill-rule:nonzero;"/><path d="M302.033,70.331l-6.737,0l0,-4.494l18.348,0l0,4.494l-6.739,0l0,17.652l-4.872,0l0,-17.652Z" style="fill:#00adef;fill-rule:nonzero;"/></g></g></svg>