<?xml version="1.0" encoding="UTF-8" standalone="no"?><!DOCTYPE svg PUBLIC "-//W3C//DTD SVG 1.1//EN" "http://www.w3.org/Graphics/SVG/1.1/DTD/svg11.dtd"><svg width="100%" height="100%" viewBox="0 0 314 100" version="1.1" xmlns="http://www.w3.org/2000/svg" xmlns:xlink="http://www.w3.org/1999/xlink" xml:space="preserve" style="fill-rule:evenodd;clip-rule:evenodd;stroke-linejoin:round;stroke-miterlimit:1.41421;"><g><rect x="19.471" y="0" width="79.062" height="100" style="fill:#00adef;"/><path d="M62.705,88.106l27.627,-51.915l-19.434,0l-27.625,51.915l19.432,0Z" style="fill:#008fcf;fill-rule:nonzero;"/><path d="M98.52,88.106l0.013,-36.454l-19.445,36.454l19.432,0Z" style="fill:#008fcf;fill-rule:nonzero;"/><path d="M27.273,88.106l27.627,-51.915l-19.432,0l-15.997,30.065l0,21.85l7.802,0Z" style="fill:#008fcf;fill-rule:nonzero;"/><path d="M27.648,88.144l-27.648,-51.953l19.447,0l27.645,51.953l-19.444,0Z" style="fill:#fff;fill-rule:nonzero;"/><path d="M63.103,88.144l-27.647,-51.953l19.447,0l27.645,51.953l-19.445,0Z" style="fill:#fff;fill-rule:nonzero;"/><path d="M98.558,88.144l-27.645,-51.953l19.445,0l27.646,51.953l-19.446,0Z" style="fill:#fff;fill-rule:nonzero;"/><path d="M118.352,37.271l5.221,0l4.588,14.998l4.968,-15.062l4.177,0l4.968,15.062l4.588,-14.998l5.095,0l-7.563,22.31l-4.241,0l-4.999,-14.493l-5,14.493l-4.24,0l-7.562,-22.31Z" style="fill:#fff;fill-rule:nonzero;"/><path d="M161.996,48.441c1.224,0 2.172,-0.322 2.846,-0.965c0.676,-0.643 1.014,-1.44 1.014,-2.388l0,-0.063c0,-1.098 -0.354,-1.932 -1.06,-2.501c-0.707,-0.571 -1.672,-0.853 -2.896,-0.853l-3.766,0l0,6.77l3.862,0Zm-8.734,-11.17l9.05,0c1.329,0 2.516,0.186 3.56,0.554c1.042,0.37 1.929,0.892 2.658,1.566c0.728,0.674 1.286,1.482 1.676,2.421c0.391,0.939 0.587,1.976 0.587,3.117l0,0.063c0,1.287 -0.233,2.415 -0.696,3.384c-0.465,0.971 -1.104,1.785 -1.915,2.44c-0.812,0.652 -1.762,1.143 -2.848,1.469c-1.088,0.33 -2.253,0.492 -3.497,0.492l-3.703,0l0,6.643l-4.872,0l0,-22.149Z" style="fill:#fff;fill-rule:nonzero;"/><g><path d="M129.048,88.362c-1.73,0 -3.306,-0.285 -4.73,-0.854c-1.422,-0.57 -2.646,-1.36 -3.669,-2.374c-1.023,-1.012 -1.819,-2.213 -2.388,-3.605c-0.569,-1.392 -0.855,-2.911 -0.855,-4.556l0,-0.063c0,-1.582 0.291,-3.064 0.871,-4.445c0.58,-1.381 1.387,-2.593 2.42,-3.637c1.033,-1.044 2.256,-1.867 3.669,-2.468c1.414,-0.601 2.963,-0.901 4.651,-0.901c0.991,0 1.892,0.068 2.704,0.205c0.812,0.137 1.567,0.332 2.263,0.585c0.696,0.254 1.349,0.569 1.961,0.949c0.612,0.379 1.201,0.812 1.771,1.296l-3.068,3.702c-0.422,-0.359 -0.844,-0.675 -1.266,-0.948c-0.421,-0.275 -0.86,-0.507 -1.313,-0.696c-0.453,-0.191 -0.943,-0.338 -1.471,-0.444c-0.526,-0.106 -1.106,-0.158 -1.74,-0.158c-0.885,0 -1.713,0.184 -2.482,0.554c-0.771,0.369 -1.446,0.865 -2.026,1.486c-0.58,0.623 -1.033,1.35 -1.36,2.183c-0.326,0.833 -0.49,1.724 -0.49,2.673l0,0.064c0,1.012 0.164,1.946 0.49,2.799c0.327,0.855 0.791,1.599 1.392,2.231c0.602,0.633 1.308,1.122 2.119,1.47c0.812,0.348 1.715,0.523 2.705,0.523c1.814,0 3.343,-0.443 4.587,-1.329l0,-3.163l-4.903,0l0,-4.208l9.618,0l0,9.617c-1.139,0.971 -2.495,1.798 -4.066,2.483c-1.572,0.687 -3.369,1.029 -5.394,1.029Z" style="fill:#00adef;fill-rule:nonzero;"/><path d="M151.636,83.869c0.97,0 1.866,-0.179 2.689,-0.537c0.823,-0.359 1.524,-0.855 2.104,-1.487c0.58,-0.633 1.033,-1.365 1.36,-2.199c0.327,-0.833 0.491,-1.724 0.491,-2.673l0,-0.063c0,-0.949 -0.164,-1.845 -0.491,-2.689c-0.327,-0.844 -0.791,-1.581 -1.392,-2.215c-0.601,-0.632 -1.313,-1.133 -2.136,-1.502c-0.821,-0.37 -1.719,-0.554 -2.688,-0.554c-0.992,0 -1.893,0.179 -2.705,0.538c-0.812,0.358 -1.508,0.854 -2.088,1.486c-0.58,0.634 -1.034,1.366 -1.36,2.199c-0.327,0.833 -0.491,1.724 -0.491,2.673l0,0.064c0,0.948 0.164,1.846 0.491,2.688c0.326,0.844 0.79,1.583 1.392,2.215c0.601,0.633 1.308,1.133 2.118,1.503c0.812,0.369 1.715,0.553 2.706,0.553Zm-0.063,4.493c-1.709,0 -3.28,-0.301 -4.715,-0.902c-1.433,-0.6 -2.672,-1.412 -3.716,-2.436c-1.044,-1.023 -1.856,-2.224 -2.436,-3.606c-0.58,-1.381 -0.87,-2.864 -0.87,-4.445l0,-0.063c0,-1.582 0.296,-3.064 0.886,-4.445c0.59,-1.381 1.407,-2.593 2.451,-3.637c1.044,-1.044 2.289,-1.867 3.733,-2.468c1.446,-0.601 3.022,-0.901 4.73,-0.901c1.708,0 3.28,0.3 4.713,0.901c1.435,0.601 2.673,1.413 3.717,2.436c1.044,1.022 1.856,2.225 2.436,3.606c0.58,1.382 0.871,2.863 0.871,4.444l0,0.064c0,1.582 -0.296,3.063 -0.887,4.444c-0.59,1.382 -1.408,2.595 -2.452,3.639c-1.044,1.044 -2.288,1.867 -3.732,2.467c-1.445,0.601 -3.021,0.902 -4.729,0.902Z" style="fill:#00adef;fill-rule:nonzero;"/><path d="M165.334,65.837l4.871,0l0,17.716l11.041,0l0,4.429l-15.912,0l0,-22.145Z" style="fill:#00adef;fill-rule:nonzero;"/><path d="M191.18,83.585c0.99,0 1.898,-0.159 2.721,-0.475c0.821,-0.316 1.523,-0.769 2.103,-1.36c0.58,-0.59 1.033,-1.286 1.361,-2.088c0.327,-0.801 0.489,-1.698 0.489,-2.689l0,-0.063c0,-0.97 -0.162,-1.866 -0.489,-2.689c-0.328,-0.823 -0.781,-1.529 -1.361,-2.12c-0.58,-0.591 -1.282,-1.049 -2.103,-1.376c-0.823,-0.327 -1.731,-0.491 -2.721,-0.491l-3.764,0l0,13.351l3.764,0Zm-8.636,-17.748l8.636,0c1.729,0 3.316,0.28 4.761,0.839c1.444,0.558 2.689,1.334 3.733,2.325c1.044,0.991 1.851,2.156 2.42,3.496c0.569,1.339 0.853,2.789 0.853,4.349l0,0.064c0,1.56 -0.284,3.016 -0.853,4.366c-0.569,1.349 -1.376,2.52 -2.42,3.51c-1.044,0.992 -2.289,1.772 -3.733,2.342c-1.445,0.569 -3.032,0.854 -4.761,0.854l-8.636,0l0,-22.145Z" style="fill:#00adef;fill-rule:nonzero;"/><path d="M221.269,88.362c-1.624,0 -3.132,-0.296 -4.524,-0.886c-1.392,-0.591 -2.594,-1.398 -3.607,-2.42c-1.012,-1.023 -1.803,-2.231 -2.372,-3.623c-0.569,-1.391 -0.855,-2.879 -0.855,-4.46l0,-0.063c0,-1.582 0.286,-3.064 0.855,-4.445c0.569,-1.381 1.36,-2.593 2.372,-3.637c1.013,-1.044 2.225,-1.867 3.639,-2.468c1.413,-0.601 2.973,-0.901 4.681,-0.901c1.033,0 1.977,0.084 2.832,0.252c0.853,0.169 1.629,0.401 2.325,0.696c0.696,0.295 1.339,0.654 1.93,1.075c0.59,0.423 1.138,0.887 1.645,1.392l-3.1,3.575c-0.865,-0.78 -1.745,-1.392 -2.641,-1.835c-0.898,-0.442 -1.904,-0.664 -3.022,-0.664c-0.928,0 -1.788,0.179 -2.578,0.538c-0.791,0.358 -1.471,0.854 -2.04,1.486c-0.57,0.634 -1.014,1.366 -1.33,2.199c-0.316,0.833 -0.474,1.724 -0.474,2.673l0,0.064c0,0.948 0.158,1.846 0.474,2.688c0.316,0.844 0.755,1.583 1.314,2.215c0.558,0.633 1.233,1.133 2.024,1.503c0.79,0.369 1.661,0.553 2.61,0.553c1.266,0 2.335,-0.232 3.211,-0.696c0.875,-0.464 1.745,-1.096 2.609,-1.897l3.1,3.132c-0.569,0.61 -1.158,1.16 -1.77,1.645c-0.612,0.484 -1.282,0.901 -2.01,1.249c-0.728,0.348 -1.524,0.611 -2.388,0.791c-0.865,0.179 -1.834,0.269 -2.91,0.269Z" style="fill:#00adef;fill-rule:nonzero;"/><path d="M242.686,83.869c0.969,0 1.867,-0.179 2.688,-0.537c0.823,-0.359 1.524,-0.855 2.104,-1.487c0.58,-0.633 1.033,-1.365 1.361,-2.199c0.327,-0.833 0.49,-1.724 0.49,-2.673l0,-0.063c0,-0.949 -0.163,-1.845 -0.49,-2.689c-0.328,-0.844 -0.792,-1.581 -1.392,-2.215c-0.601,-0.632 -1.313,-1.133 -2.136,-1.502c-0.822,-0.37 -1.718,-0.554 -2.689,-0.554c-0.991,0 -1.892,0.179 -2.704,0.538c-0.812,0.358 -1.508,0.854 -2.088,1.486c-0.58,0.634 -1.033,1.366 -1.36,2.199c-0.328,0.833 -0.491,1.724 -0.491,2.673l0,0.064c0,0.948 0.163,1.846 0.491,2.688c0.327,0.844 0.791,1.583 1.391,2.215c0.601,0.633 1.308,1.133 2.12,1.503c0.812,0.369 1.713,0.553 2.705,0.553Zm-0.064,4.493c-1.708,0 -3.279,-0.301 -4.713,-0.902c-1.435,-0.6 -2.674,-1.412 -3.718,-2.436c-1.044,-1.023 -1.856,-2.224 -2.436,-3.606c-0.58,-1.381 -0.869,-2.864 -0.869,-4.445l0,-0.063c0,-1.582 0.295,-3.064 0.885,-4.445c0.591,-1.381 1.408,-2.593 2.452,-3.637c1.044,-1.044 2.288,-1.867 3.734,-2.468c1.444,-0.601 3.021,-0.901 4.729,-0.901c1.708,0 3.279,0.3 4.713,0.901c1.435,0.601 2.674,1.413 3.718,2.436c1.044,1.022 1.856,2.225 2.436,3.606c0.58,1.382 0.869,2.863 0.869,4.444l0,0.064c0,1.582 -0.295,3.063 -0.885,4.444c-0.591,1.382 -1.408,2.595 -2.452,3.639c-1.044,1.044 -2.288,1.867 -3.734,2.467c-1.444,0.601 -3.02,0.902 -4.729,0.902Z" style="fill:#00adef;fill-rule:nonzero;"/><path d="M269.101,78.713l-2.942,-7.181l-2.942,7.181l5.884,0Zm-5.124,-13.033l4.492,0l9.49,22.302l-5.093,0l-2.025,-4.966l-9.364,0l-2.024,4.966l-4.967,0l9.491,-22.302Z" style="fill:#00adef;fill-rule:nonzero;"/><path d="M286.879,88.298c-1.686,0 -3.342,-0.289 -4.966,-0.869c-1.623,-0.58 -3.1,-1.472 -4.428,-2.673l2.878,-3.448c1.012,0.821 2.051,1.476 3.116,1.961c1.066,0.484 2.231,0.727 3.496,0.727c1.012,0 1.798,-0.184 2.356,-0.554c0.559,-0.369 0.839,-0.88 0.839,-1.534l0,-0.063c0,-0.316 -0.057,-0.596 -0.173,-0.839c-0.116,-0.242 -0.339,-0.469 -0.666,-0.68c-0.326,-0.21 -0.78,-0.421 -1.36,-0.632c-0.58,-0.212 -1.333,-0.433 -2.261,-0.665c-1.119,-0.273 -2.131,-0.58 -3.037,-0.917c-0.907,-0.338 -1.678,-0.754 -2.31,-1.25c-0.633,-0.496 -1.122,-1.112 -1.47,-1.85c-0.348,-0.739 -0.523,-1.656 -0.523,-2.752l0,-0.064c0,-1.012 0.189,-1.924 0.569,-2.736c0.38,-0.812 0.912,-1.514 1.598,-2.104c0.685,-0.591 1.502,-1.044 2.452,-1.36c0.949,-0.316 1.993,-0.475 3.132,-0.475c1.624,0 3.116,0.243 4.476,0.728c1.361,0.485 2.61,1.181 3.749,2.088l-2.531,3.669c-0.992,-0.674 -1.961,-1.208 -2.91,-1.597c-0.95,-0.391 -1.899,-0.585 -2.847,-0.585c-0.949,0 -1.661,0.184 -2.136,0.553c-0.475,0.369 -0.712,0.828 -0.712,1.376l0,0.064c0,0.359 0.069,0.669 0.205,0.933c0.138,0.263 0.386,0.5 0.744,0.711c0.359,0.212 0.85,0.412 1.471,0.601c0.623,0.191 1.408,0.412 2.357,0.666c1.118,0.294 2.115,0.626 2.99,0.996c0.874,0.369 1.613,0.812 2.214,1.328c0.602,0.517 1.055,1.124 1.36,1.82c0.306,0.696 0.459,1.528 0.459,2.498l0,0.063c0,1.097 -0.2,2.073 -0.601,2.927c-0.4,0.854 -0.959,1.572 -1.676,2.152c-0.718,0.58 -1.572,1.022 -2.563,1.328c-0.991,0.305 -2.088,0.458 -3.291,0.458Z" style="fill:#00adef;fill-rule:nonzero;"/><path d="M302.033,70.33l-6.738,0l0,-4.493l18.348,0l0,4.493l-6.738,0l0,17.652l-4.872,0l0,-17.652Z" style="fill:#00adef;fill-rule:nonzero;"/></g></g></svg>