<?xml version="1.0" encoding="UTF-8" standalone="no"?><!DOCTYPE svg PUBLIC "-//W3C//DTD SVG 1.1//EN" "http://www.w3.org/Graphics/SVG/1.1/DTD/svg11.dtd"><svg width="100%" height="100%" viewBox="0 0 214 100" version="1.1" xmlns="http://www.w3.org/2000/svg" xmlns:xlink="http://www.w3.org/1999/xlink" xml:space="preserve" style="fill-rule:evenodd;clip-rule:evenodd;stroke-linejoin:round;stroke-miterlimit:1.41421;"><g><rect x="19.471" y="0" width="79.063" height="100" style="fill:#d01737;"/><path d="M62.736,88.144l27.647,-51.953l-19.447,0l-27.645,51.953l19.445,0Z" style="fill:#b10712;fill-rule:nonzero;"/><path d="M98.576,88.144l0.013,-36.48l-19.458,36.48l19.445,0Z" style="fill:#b10712;fill-rule:nonzero;"/><path d="M27.279,88.144l27.646,-51.953l-19.446,0l-16.008,30.086l0,21.867l7.808,0Z" style="fill:#b10712;fill-rule:nonzero;"/><path d="M27.648,88.144l-27.648,-51.953l19.447,0l27.645,51.953l-19.444,0l0,0Z" style="fill:#fff;fill-rule:nonzero;"/><path d="M63.103,88.144l-27.647,-51.953l19.447,0l27.645,51.953l-19.445,0Z" style="fill:#fff;fill-rule:nonzero;"/><path d="M98.559,88.144l-27.646,-51.953l19.446,0l27.645,51.953l-19.445,0l0,0Z" style="fill:#fff;fill-rule:nonzero;"/><path d="M118.352,37.271l5.221,0l4.588,14.998l4.968,-15.062l4.178,0l4.968,15.062l4.588,-14.998l5.094,0l-7.562,22.31l-4.242,0l-4.998,-14.493l-5,14.493l-4.24,0l-7.563,-22.31l0,0Z" style="fill:#fff;fill-rule:nonzero;"/><path d="M161.996,48.441c1.224,0 2.172,-0.322 2.847,-0.965c0.676,-0.643 1.013,-1.44 1.013,-2.388l0,-0.063c0,-1.098 -0.353,-1.932 -1.06,-2.501c-0.707,-0.571 -1.672,-0.853 -2.896,-0.853l-3.765,0l0,6.77l3.861,0Zm-8.733,-11.17l9.049,0c1.329,0 2.516,0.186 3.56,0.554c1.043,0.37 1.929,0.892 2.659,1.566c0.728,0.674 1.285,1.482 1.676,2.421c0.39,0.939 0.586,1.976 0.586,3.117l0,0.063c0,1.287 -0.233,2.415 -0.696,3.384c-0.465,0.971 -1.104,1.785 -1.914,2.44c-0.812,0.652 -1.763,1.143 -2.848,1.469c-1.088,0.33 -2.254,0.492 -3.498,0.492l-3.702,0l0,6.643l-4.872,0l0,-22.149l0,0Z" style="fill:#fff;fill-rule:nonzero;"/><g><path d="M127.119,77.005c1.224,0 2.172,-0.321 2.848,-0.965c0.674,-0.643 1.012,-1.439 1.012,-2.388l0,-0.064c0,-1.096 -0.354,-1.929 -1.06,-2.499c-0.707,-0.569 -1.672,-0.854 -2.895,-0.854l-3.764,0l0,6.77l3.859,0Zm-8.731,-11.168l9.047,0c1.329,0 2.516,0.186 3.56,0.555c1.044,0.368 1.929,0.891 2.657,1.565c0.727,0.675 1.287,1.482 1.676,2.42c0.391,0.939 0.585,1.978 0.585,3.116l0,0.064c0,1.286 -0.232,2.415 -0.696,3.384c-0.464,0.971 -1.101,1.783 -1.913,2.436c-0.812,0.655 -1.761,1.144 -2.848,1.472c-1.085,0.327 -2.251,0.49 -3.495,0.49l-3.701,0l0,6.644l-4.872,0l0,-22.146l0,0Z" style="fill:#d01737;fill-rule:nonzero;"/><path d="M137.147,65.837l16.704,0l0,4.335l-11.863,0l0,4.492l10.439,0l0,4.335l-10.439,0l0,4.649l12.021,0l0,4.335l-16.862,0l0,-22.146l0,0Z" style="fill:#d01737;fill-rule:nonzero;"/><path d="M165.777,76.593c1.202,0 2.124,-0.284 2.768,-0.853c0.643,-0.569 0.964,-1.329 0.964,-2.279l0,-0.062c0,-1.055 -0.337,-1.846 -1.012,-2.372c-0.674,-0.528 -1.613,-0.792 -2.814,-0.792l-4.842,0l0,6.358l4.936,0Zm-9.806,-10.756l10.122,0c2.806,0 4.956,0.75 6.454,2.247c1.265,1.265 1.898,2.952 1.898,5.061l0,0.064c0,1.792 -0.437,3.252 -1.313,4.382c-0.875,1.128 -2.019,1.956 -3.432,2.482l5.409,7.91l-5.694,0l-4.746,-7.087l-0.062,0l-3.766,0l0,7.087l-4.87,0l0,-22.146l0,0Z" style="fill:#d01737;fill-rule:nonzero;"/><path d="M181.627,70.331l-6.739,0l0,-4.494l18.348,0l0,4.494l-6.737,0l0,17.652l-4.872,0l0,-17.652l0,0Z" style="fill:#d01737;fill-rule:nonzero;"/><path d="M194.597,65.837l4.871,0l0,8.764l8.985,0l0,-8.764l4.872,0l0,22.146l-4.872,0l0,-8.89l-8.985,0l0,8.89l-4.871,0l0,-22.146l0,0Z" style="fill:#d01737;fill-rule:nonzero;"/></g></g></svg>