<?xml version="1.0" encoding="UTF-8" standalone="no"?><!DOCTYPE svg PUBLIC "-//W3C//DTD SVG 1.1//EN" "http://www.w3.org/Graphics/SVG/1.1/DTD/svg11.dtd"><svg width="100%" height="100%" viewBox="0 0 218 75" version="1.1" xmlns="http://www.w3.org/2000/svg" xmlns:xlink="http://www.w3.org/1999/xlink" xml:space="preserve" style="fill-rule:evenodd;clip-rule:evenodd;stroke-linejoin:round;stroke-miterlimit:1.41421;"><g><rect x="14.603" y="0" width="59.299" height="75" style="fill:#8cc63f;fill-rule:nonzero;"/><path d="M47.054,66.108l20.735,-38.966l-14.585,0l-20.735,38.966l14.585,0Z" style="fill:#70a025;fill-rule:nonzero;"/><path d="M73.935,66.108l0.01,-27.361l-14.594,27.361l14.584,0Z" style="fill:#70a025;fill-rule:nonzero;"/><path d="M20.46,66.108l20.736,-38.966l-14.586,0l-12.006,22.565l0,16.401l5.856,0Z" style="fill:#70a025;fill-rule:nonzero;"/><path d="M20.736,66.108l-20.736,-38.966l14.585,0l20.735,38.966l-14.584,0Z" style="fill:#fff;fill-rule:nonzero;"/><path d="M47.328,66.108l-20.735,-38.966l14.585,0l20.735,38.966l-14.585,0Z" style="fill:#fff;fill-rule:nonzero;"/><path d="M73.921,66.108l-20.735,-38.966l14.585,0l20.734,38.966l-14.584,0Z" style="fill:#fff;fill-rule:nonzero;"/><path d="M99.588,59.175l-2.207,-5.388l-2.208,5.388l4.415,0Zm-3.845,-9.779l3.37,0l7.12,16.731l-3.821,0l-1.519,-3.725l-7.024,0l-1.519,3.725l-3.724,0.001l7.117,-16.732Z" style="fill:#8cc63f;fill-rule:nonzero;"/><path d="M113.059,66.389c-2.231,0 -3.987,-0.617 -5.268,-1.85c-1.282,-1.236 -1.923,-3.079 -1.923,-5.532l0,-9.493l3.655,0l0,9.399c0,1.361 0.317,2.384 0.95,3.073c0.631,0.688 1.51,1.033 2.634,1.033c1.123,0 2.001,-0.333 2.634,-0.997c0.633,-0.665 0.95,-1.66 0.95,-2.991l0,-9.517l3.655,0l0,9.374c0,1.268 -0.17,2.367 -0.511,3.299c-0.341,0.936 -0.827,1.714 -1.459,2.339c-0.633,0.626 -1.401,1.091 -2.302,1.4c-0.902,0.308 -1.907,0.463 -3.015,0.463" style="fill:#8cc63f;fill-rule:nonzero;"/><path d="M128.366,66.365c-1.266,0 -2.509,-0.217 -3.726,-0.652c-1.218,-0.435 -2.326,-1.104 -3.323,-2.005l2.16,-2.588c0.76,0.618 1.539,1.108 2.338,1.472c0.799,0.363 1.673,0.545 2.622,0.545c0.76,0 1.349,-0.138 1.768,-0.415c0.42,-0.276 0.629,-0.66 0.629,-1.15l0,-0.049c0,-0.237 -0.044,-0.446 -0.13,-0.628c-0.089,-0.182 -0.255,-0.353 -0.5,-0.51c-0.246,-0.158 -0.588,-0.317 -1.024,-0.475c-0.436,-0.159 -1.004,-0.324 -1.7,-0.498c-0.842,-0.205 -1.604,-0.436 -2.285,-0.689c-0.683,-0.253 -1.262,-0.565 -1.738,-0.937c-0.476,-0.372 -0.844,-0.835 -1.106,-1.388c-0.262,-0.554 -0.393,-1.243 -0.393,-2.067l0,-0.045c0,-0.76 0.141,-1.444 0.424,-2.054c0.284,-0.608 0.68,-1.134 1.19,-1.578c0.512,-0.443 1.122,-0.784 1.831,-1.021c0.71,-0.237 1.49,-0.356 2.346,-0.356c1.219,0 2.338,0.182 3.358,0.546c1.02,0.364 1.958,0.887 2.813,1.567l-1.898,2.753c-0.745,-0.507 -1.472,-0.906 -2.185,-1.199c-0.712,-0.293 -1.423,-0.438 -2.136,-0.438c-0.711,0 -1.246,0.138 -1.602,0.414c-0.355,0.278 -0.534,0.62 -0.534,1.033l0,0.047c0,0.27 0.052,0.503 0.154,0.7c0.104,0.198 0.29,0.377 0.56,0.534c0.269,0.16 0.639,0.309 1.107,0.452c0.468,0.143 1.059,0.308 1.773,0.499c0.84,0.22 1.59,0.469 2.248,0.746c0.659,0.278 1.213,0.61 1.666,0.998c0.452,0.386 0.793,0.841 1.024,1.364c0.23,0.521 0.344,1.147 0.344,1.874l0,0.049c0,0.822 -0.149,1.555 -0.447,2.194c-0.299,0.642 -0.716,1.179 -1.25,1.615c-0.535,0.435 -1.173,0.767 -1.913,0.997c-0.742,0.229 -1.563,0.343 -2.465,0.343" style="fill:#8cc63f;fill-rule:nonzero;"/><path d="M139.99,52.884l-5.055,0l0,-3.37l13.765,0l0,3.37l-5.055,0l0,13.244l-3.655,0l0,-13.244Z" style="fill:#8cc63f;fill-rule:nonzero;"/><path d="M156.947,57.583c0.901,0 1.593,-0.213 2.076,-0.64c0.482,-0.427 0.723,-0.997 0.723,-1.708l0,-0.048c0,-0.79 -0.252,-1.385 -0.759,-1.779c-0.505,-0.397 -1.211,-0.595 -2.112,-0.595l-3.631,0l0,4.77l3.703,0Zm-7.358,-8.069l7.595,0c2.103,0 3.717,0.563 4.841,1.686c0.949,0.949 1.424,2.215 1.424,3.798l0,0.046c0,1.345 -0.328,2.442 -0.984,3.287c-0.657,0.847 -1.516,1.469 -2.576,1.864l4.059,5.932l-4.273,0l-3.559,-5.315l-0.048,0l-2.824,0l0,5.315l-3.655,0l0,-16.613Z" style="fill:#8cc63f;fill-rule:nonzero;"/><path d="M175.408,59.175l-2.208,-5.388l-2.207,5.388l4.415,0Zm-3.846,-9.779l3.37,0l7.12,16.731l-3.82,0l-1.519,-3.725l-7.025,0l-1.52,3.725l-3.726,0l7.12,-16.731Z" style="fill:#8cc63f;fill-rule:nonzero;"/><path d="M182.63,49.514l3.655,0l0,13.315l8.282,0l0,3.299l-11.937,0l0,-16.614Z" style="fill:#8cc63f;fill-rule:nonzero;"/><rect x="195.456" y="49.515" width="3.655" height="16.614" style="fill:#8cc63f;fill-rule:nonzero;"/><path d="M210.668,59.175l-2.207,-5.388l-2.208,5.388l4.415,0Zm-3.845,-9.779l3.371,0l7.119,16.731l-3.821,0l-1.519,-3.725l-7.025,0l-1.519,3.725l-3.726,0l7.12,-16.731Z" style="fill:#8cc63f;fill-rule:nonzero;"/><path d="M88.766,27.954l3.916,0l3.441,11.25l3.726,-11.297l3.133,0l3.726,11.297l3.441,-11.25l3.822,0l-5.673,16.733l-3.181,0l-3.749,-10.87l-3.749,10.87l-3.181,0l-5.672,-16.733Z" style="fill:#fff;fill-rule:nonzero;"/><path d="M121.499,36.333c0.918,0 1.629,-0.242 2.136,-0.724c0.507,-0.483 0.76,-1.08 0.76,-1.791l0,-0.048c0,-0.823 -0.266,-1.448 -0.795,-1.876c-0.53,-0.427 -1.254,-0.639 -2.172,-0.639l-2.824,0l0,5.078l2.895,0Zm-6.55,-8.379l6.787,0c0.997,0 1.888,0.14 2.67,0.416c0.783,0.278 1.448,0.669 1.995,1.174c0.546,0.507 0.964,1.113 1.257,1.816c0.292,0.705 0.44,1.483 0.44,2.339l0,0.047c0,0.965 -0.175,1.81 -0.523,2.538c-0.348,0.728 -0.827,1.339 -1.436,1.829c-0.608,0.49 -1.321,0.858 -2.135,1.103c-0.816,0.247 -1.69,0.368 -2.624,0.368l-2.776,0l0,4.983l-3.655,0l0,-16.613Z" style="fill:#fff;fill-rule:nonzero;"/></g></svg>