<?xml version="1.0" encoding="UTF-8" standalone="no"?><!DOCTYPE svg PUBLIC "-//W3C//DTD SVG 1.1//EN" "http://www.w3.org/Graphics/SVG/1.1/DTD/svg11.dtd"><svg width="100%" height="100%" viewBox="0 0 198 75" version="1.1" xmlns="http://www.w3.org/2000/svg" xmlns:xlink="http://www.w3.org/1999/xlink" xml:space="preserve" style="fill-rule:evenodd;clip-rule:evenodd;stroke-linejoin:round;stroke-miterlimit:1.41421;"><g><rect x="14.603" y="0" width="59.297" height="75" style="fill:#0e2542;"/><path d="M47.029,66.108l20.72,-38.937l-14.575,0l-20.719,38.937l14.574,0Z" style="fill:#071321;fill-opacity:0.498039;fill-rule:nonzero;"/><path d="M73.89,66.108l0.01,-27.341l-14.584,27.341l14.574,0Z" style="fill:#071321;fill-opacity:0.498039;fill-rule:nonzero;"/><path d="M20.455,66.108l20.72,-38.937l-14.574,0l-11.998,22.549l0,16.388l5.852,0Z" style="fill:#071321;fill-opacity:0.498039;fill-rule:nonzero;"/><path d="M20.736,66.108l-20.736,-38.965l14.585,0l20.734,38.965l-14.583,0l0,0Z" style="fill:#fff;fill-rule:nonzero;"/><path d="M47.327,66.108l-20.735,-38.965l14.585,0l20.734,38.965l-14.584,0Z" style="fill:#fff;fill-rule:nonzero;"/><path d="M73.919,66.108l-20.734,-38.965l14.584,0l20.734,38.965l-14.584,0l0,0Z" style="fill:#fff;fill-rule:nonzero;"/><path d="M88.764,27.953l3.916,0l3.441,11.249l3.726,-11.297l3.133,0l3.726,11.297l3.441,-11.249l3.821,0l-5.672,16.733l-3.181,0l-3.749,-10.87l-3.75,10.87l-3.18,0l-5.672,-16.733l0,0Z" style="fill:#4d4d4d;fill-rule:nonzero;"/><path d="M121.497,36.331c0.918,0 1.629,-0.242 2.135,-0.724c0.507,-0.482 0.76,-1.08 0.76,-1.791l0,-0.047c0,-0.824 -0.265,-1.449 -0.795,-1.876c-0.53,-0.428 -1.254,-0.64 -2.172,-0.64l-2.824,0l0,5.078l2.896,0Zm-6.55,-8.378l6.787,0c0.997,0 1.887,0.14 2.67,0.416c0.782,0.277 1.447,0.669 1.994,1.174c0.546,0.506 0.964,1.112 1.257,1.816c0.293,0.704 0.44,1.482 0.44,2.338l0,0.047c0,0.965 -0.175,1.811 -0.522,2.538c-0.349,0.728 -0.828,1.339 -1.436,1.83c-0.609,0.489 -1.322,0.857 -2.136,1.102c-0.816,0.247 -1.69,0.369 -2.623,0.369l-2.777,0l0,4.982l-3.654,0l0,-16.612l0,0Z" style="fill:#4d4d4d;fill-rule:nonzero;"/><g><path d="M96.786,66.272c-1.297,0 -2.479,-0.214 -3.547,-0.641c-1.067,-0.427 -1.985,-1.02 -2.752,-1.78c-0.767,-0.759 -1.364,-1.66 -1.791,-2.704c-0.427,-1.044 -0.641,-2.183 -0.641,-3.417l0,-0.047c0,-1.187 0.218,-2.298 0.653,-3.334c0.435,-1.036 1.04,-1.945 1.815,-2.728c0.775,-0.783 1.692,-1.4 2.752,-1.851c1.06,-0.451 2.222,-0.676 3.488,-0.676c0.743,0 1.419,0.051 2.028,0.154c0.609,0.103 1.175,0.249 1.697,0.439c0.522,0.19 1.012,0.427 1.471,0.712c0.459,0.284 0.901,0.609 1.328,0.972l-2.301,2.776c-0.316,-0.269 -0.633,-0.506 -0.949,-0.711c-0.316,-0.206 -0.645,-0.38 -0.985,-0.522c-0.34,-0.143 -0.707,-0.253 -1.103,-0.333c-0.395,-0.079 -0.83,-0.118 -1.305,-0.118c-0.664,0 -1.285,0.138 -1.862,0.415c-0.578,0.277 -1.084,0.649 -1.519,1.115c-0.435,0.467 -0.775,1.012 -1.02,1.637c-0.245,0.625 -0.368,1.293 -0.368,2.005l0,0.048c0,0.759 0.123,1.459 0.368,2.099c0.245,0.641 0.593,1.199 1.044,1.673c0.451,0.475 0.981,0.842 1.589,1.103c0.609,0.261 1.286,0.392 2.029,0.392c1.36,0 2.507,-0.332 3.44,-0.997l0,-2.372l-3.677,0l0,-3.156l7.213,0l0,7.213c-0.854,0.728 -1.871,1.348 -3.049,1.862c-1.179,0.515 -2.527,0.772 -4.046,0.772l0,0Z" style="fill:#0e2542;fill-rule:nonzero;"/><path d="M105.613,49.378l12.527,0l0,3.251l-8.897,0l0,3.369l7.83,0l0,3.251l-7.83,0l0,3.487l9.016,0l0,3.251l-12.646,0l0,-16.609l0,0Z" style="fill:#0e2542;fill-rule:nonzero;"/><path d="M119.73,49.378l12.527,0l0,3.251l-8.897,0l0,3.369l7.83,0l0,3.251l-7.83,0l0,3.487l9.016,0l0,3.251l-12.646,0l0,-16.609l0,0Z" style="fill:#0e2542;fill-rule:nonzero;"/><path d="M133.847,49.378l3.654,0l0,13.287l8.28,0l0,3.322l-11.934,0l0,-16.609l0,0Z" style="fill:#0e2542;fill-rule:nonzero;"/><path d="M154.869,62.902c0.727,0 1.399,-0.134 2.016,-0.403c0.617,-0.269 1.143,-0.641 1.578,-1.115c0.435,-0.475 0.775,-1.024 1.02,-1.649c0.246,-0.625 0.368,-1.293 0.368,-2.005l0,-0.047c0,-0.712 -0.122,-1.384 -0.368,-2.017c-0.245,-0.633 -0.593,-1.186 -1.044,-1.661c-0.45,-0.474 -0.984,-0.85 -1.601,-1.127c-0.617,-0.277 -1.289,-0.415 -2.017,-0.415c-0.743,0 -1.419,0.134 -2.028,0.403c-0.609,0.269 -1.131,0.641 -1.566,1.115c-0.435,0.475 -0.775,1.024 -1.021,1.649c-0.245,0.625 -0.367,1.293 -0.367,2.005l0,0.048c0,0.711 0.122,1.384 0.367,2.016c0.246,0.633 0.594,1.187 1.044,1.661c0.451,0.475 0.981,0.85 1.59,1.127c0.609,0.277 1.285,0.415 2.029,0.415l0,0Zm-0.048,3.37c-1.281,0 -2.459,-0.226 -3.535,-0.677c-1.076,-0.45 -2.005,-1.059 -2.788,-1.827c-0.783,-0.767 -1.392,-1.668 -1.827,-2.704c-0.435,-1.036 -0.652,-2.148 -0.652,-3.334l0,-0.047c0,-1.187 0.221,-2.298 0.664,-3.334c0.443,-1.036 1.056,-1.945 1.839,-2.728c0.783,-0.783 1.716,-1.4 2.8,-1.851c1.083,-0.451 2.265,-0.676 3.547,-0.676c1.281,0 2.459,0.225 3.535,0.676c1.075,0.451 2.005,1.06 2.788,1.827c0.783,0.767 1.392,1.669 1.827,2.705c0.435,1.036 0.652,2.147 0.652,3.333l0,0.048c0,1.186 -0.221,2.297 -0.664,3.333c-0.443,1.036 -1.056,1.946 -1.839,2.729c-0.783,0.783 -1.716,1.4 -2.8,1.85c-1.083,0.451 -2.266,0.677 -3.547,0.677l0,0Z" style="fill:#0e2542;fill-rule:nonzero;"/><path d="M165.142,49.378l3.369,0l7.783,10.226l0,-10.226l3.606,0l0,16.609l-3.108,0l-8.043,-10.558l0,10.558l-3.607,0l0,-16.609l0,0Z" style="fill:#0e2542;fill-rule:nonzero;"/><path d="M190.102,66.272c-1.297,0 -2.479,-0.214 -3.547,-0.641c-1.067,-0.427 -1.985,-1.02 -2.752,-1.78c-0.767,-0.759 -1.364,-1.66 -1.791,-2.704c-0.427,-1.044 -0.641,-2.183 -0.641,-3.417l0,-0.047c0,-1.187 0.217,-2.298 0.652,-3.334c0.435,-1.036 1.04,-1.945 1.816,-2.728c0.775,-0.783 1.692,-1.4 2.752,-1.851c1.06,-0.451 2.222,-0.676 3.488,-0.676c0.743,0 1.419,0.051 2.028,0.154c0.609,0.103 1.175,0.249 1.697,0.439c0.522,0.19 1.012,0.427 1.471,0.712c0.458,0.284 0.901,0.609 1.328,0.972l-2.301,2.776c-0.316,-0.269 -0.633,-0.506 -0.949,-0.711c-0.317,-0.206 -0.645,-0.38 -0.985,-0.522c-0.34,-0.143 -0.708,-0.253 -1.103,-0.333c-0.396,-0.079 -0.831,-0.118 -1.305,-0.118c-0.664,0 -1.285,0.138 -1.863,0.415c-0.577,0.277 -1.083,0.649 -1.518,1.115c-0.435,0.467 -0.775,1.012 -1.02,1.637c-0.245,0.625 -0.368,1.293 -0.368,2.005l0,0.048c0,0.759 0.123,1.459 0.368,2.099c0.245,0.641 0.593,1.199 1.044,1.673c0.45,0.475 0.98,0.842 1.589,1.103c0.609,0.261 1.285,0.392 2.029,0.392c1.36,0 2.507,-0.332 3.44,-0.997l0,-2.372l-3.677,0l0,-3.156l7.212,0l0,7.213c-0.854,0.728 -1.87,1.348 -3.048,1.862c-1.179,0.515 -2.527,0.772 -4.046,0.772l0,0Z" style="fill:#0e2542;fill-rule:nonzero;"/></g></g></svg>