<?xml version="1.0" encoding="UTF-8" standalone="no"?><!DOCTYPE svg PUBLIC "-//W3C//DTD SVG 1.1//EN" "http://www.w3.org/Graphics/SVG/1.1/DTD/svg11.dtd"><svg width="100%" height="100%" viewBox="0 0 264 100" version="1.1" xmlns="http://www.w3.org/2000/svg" xmlns:xlink="http://www.w3.org/1999/xlink" xml:space="preserve" style="fill-rule:evenodd;clip-rule:evenodd;stroke-linejoin:round;stroke-miterlimit:1.41421;"><g><rect x="19.471" y="0" width="79.063" height="100" style="fill:#0e2542;"/><path d="M62.705,88.144l27.627,-51.916l-19.433,0l-27.626,51.916l19.432,0Z" style="fill:#1a4679;fill-opacity:0.494118;fill-rule:nonzero;"/><path d="M98.52,88.144l0.013,-36.455l-19.445,36.455l19.432,0Z" style="fill:#1a4679;fill-opacity:0.494118;fill-rule:nonzero;"/><path d="M27.273,88.144l27.627,-51.916l-19.432,0l-15.997,30.065l0,21.851l7.802,0Z" style="fill:#1a4679;fill-opacity:0.494118;fill-rule:nonzero;"/><path d="M27.648,88.144l-27.648,-51.953l19.447,0l27.645,51.953l-19.444,0Z" style="fill:#fff;fill-rule:nonzero;"/><path d="M63.103,88.144l-27.647,-51.953l19.447,0l27.645,51.953l-19.445,0Z" style="fill:#fff;fill-rule:nonzero;"/><path d="M98.559,88.144l-27.646,-51.953l19.446,0l27.645,51.953l-19.445,0Z" style="fill:#fff;fill-rule:nonzero;"/><path d="M118.352,37.271l5.221,0l4.588,14.998l4.968,-15.062l4.178,0l4.968,15.062l4.588,-14.998l5.094,0l-7.562,22.31l-4.242,0l-4.998,-14.493l-5,14.493l-4.24,0l-7.563,-22.31l0,0Z" style="fill:#4d4d4d;fill-rule:nonzero;"/><path d="M161.996,48.441c1.224,0 2.172,-0.322 2.847,-0.965c0.676,-0.643 1.013,-1.44 1.013,-2.388l0,-0.063c0,-1.098 -0.353,-1.932 -1.06,-2.501c-0.707,-0.571 -1.672,-0.853 -2.896,-0.853l-3.765,0l0,6.77l3.861,0Zm-8.733,-11.17l9.049,0c1.329,0 2.516,0.186 3.56,0.554c1.043,0.37 1.929,0.892 2.659,1.566c0.728,0.674 1.285,1.482 1.676,2.421c0.39,0.939 0.586,1.976 0.586,3.117l0,0.063c0,1.287 -0.233,2.415 -0.696,3.384c-0.465,0.971 -1.104,1.785 -1.914,2.44c-0.812,0.652 -1.763,1.143 -2.848,1.469c-1.088,0.33 -2.254,0.492 -3.498,0.492l-3.702,0l0,6.643l-4.872,0l0,-22.149l0,0Z" style="fill:#4d4d4d;fill-rule:nonzero;"/><g><path d="M129.048,88.363c-1.729,0 -3.305,-0.286 -4.729,-0.855c-1.423,-0.569 -2.647,-1.36 -3.67,-2.373c-1.022,-1.012 -1.818,-2.214 -2.388,-3.606c-0.569,-1.392 -0.854,-2.91 -0.854,-4.556l0,-0.062c0,-1.583 0.29,-3.064 0.87,-4.446c0.58,-1.381 1.387,-2.593 2.42,-3.637c1.034,-1.044 2.256,-1.867 3.67,-2.468c1.413,-0.601 2.962,-0.901 4.65,-0.901c0.991,0 1.892,0.068 2.704,0.205c0.812,0.137 1.567,0.332 2.263,0.585c0.696,0.254 1.349,0.57 1.961,0.95c0.612,0.378 1.202,0.812 1.771,1.296l-3.068,3.701c-0.421,-0.359 -0.844,-0.675 -1.265,-0.948c-0.422,-0.275 -0.86,-0.507 -1.314,-0.696c-0.453,-0.191 -0.942,-0.337 -1.47,-0.444c-0.527,-0.105 -1.107,-0.157 -1.74,-0.157c-0.886,0 -1.714,0.184 -2.483,0.553c-0.771,0.369 -1.445,0.865 -2.025,1.487c-0.58,0.622 -1.034,1.349 -1.36,2.182c-0.327,0.834 -0.491,1.724 -0.491,2.674l0,0.064c0,1.012 0.164,1.945 0.491,2.798c0.326,0.855 0.79,1.599 1.392,2.231c0.601,0.633 1.308,1.123 2.118,1.471c0.812,0.348 1.715,0.522 2.706,0.522c1.813,0 3.342,-0.442 4.586,-1.329l0,-3.163l-4.902,0l0,-4.208l9.617,0l0,9.618c-1.139,0.97 -2.495,1.797 -4.065,2.482c-1.572,0.687 -3.37,1.03 -5.395,1.03l0,0Z" style="fill:#0e2542;fill-rule:nonzero;"/><path d="M140.817,65.837l16.703,0l0,4.335l-11.863,0l0,4.492l10.44,0l0,4.335l-10.44,0l0,4.649l12.022,0l0,4.335l-16.862,0l0,-22.146l0,0Z" style="fill:#0e2542;fill-rule:nonzero;"/><path d="M159.64,65.837l16.703,0l0,4.335l-11.863,0l0,4.492l10.44,0l0,4.335l-10.44,0l0,4.649l12.021,0l0,4.335l-16.861,0l0,-22.146l0,0Z" style="fill:#0e2542;fill-rule:nonzero;"/><path d="M178.463,65.837l4.872,0l0,17.716l11.04,0l0,4.43l-15.912,0l0,-22.146l0,0Z" style="fill:#0e2542;fill-rule:nonzero;"/><path d="M206.492,83.869c0.969,0 1.865,-0.178 2.688,-0.537c0.823,-0.359 1.524,-0.855 2.104,-1.487c0.58,-0.633 1.033,-1.365 1.36,-2.198c0.328,-0.834 0.491,-1.724 0.491,-2.674l0,-0.062c0,-0.95 -0.163,-1.846 -0.491,-2.69c-0.327,-0.844 -0.791,-1.581 -1.392,-2.214c-0.6,-0.632 -1.312,-1.134 -2.135,-1.503c-0.822,-0.369 -1.718,-0.553 -2.689,-0.553c-0.991,0 -1.892,0.178 -2.704,0.537c-0.812,0.359 -1.508,0.855 -2.088,1.487c-0.58,0.633 -1.033,1.365 -1.361,2.198c-0.327,0.834 -0.49,1.724 -0.49,2.674l0,0.064c0,0.948 0.163,1.845 0.49,2.688c0.328,0.844 0.792,1.582 1.392,2.214c0.601,0.634 1.308,1.134 2.12,1.503c0.812,0.369 1.713,0.553 2.705,0.553l0,0Zm-0.064,4.494c-1.708,0 -3.279,-0.302 -4.713,-0.903c-1.435,-0.6 -2.674,-1.412 -3.718,-2.436c-1.044,-1.023 -1.856,-2.224 -2.436,-3.605c-0.58,-1.382 -0.869,-2.864 -0.869,-4.446l0,-0.062c0,-1.583 0.295,-3.064 0.885,-4.446c0.591,-1.381 1.408,-2.593 2.452,-3.637c1.044,-1.044 2.288,-1.867 3.734,-2.468c1.444,-0.601 3.02,-0.901 4.729,-0.901c1.708,0 3.279,0.3 4.713,0.901c1.434,0.601 2.674,1.413 3.718,2.436c1.044,1.023 1.856,2.225 2.436,3.607c0.58,1.381 0.869,2.862 0.869,4.444l0,0.064c0,1.581 -0.295,3.062 -0.885,4.444c-0.591,1.381 -1.408,2.594 -2.452,3.638c-1.044,1.044 -2.288,1.867 -3.734,2.467c-1.444,0.601 -3.021,0.903 -4.729,0.903Z" style="fill:#0e2542;fill-rule:nonzero;"/><path d="M220.189,65.837l4.492,0l10.378,13.635l0,-13.635l4.808,0l0,22.146l-4.144,0l-10.724,-14.078l0,14.078l-4.81,0l0,-22.146l0,0Z" style="fill:#0e2542;fill-rule:nonzero;"/><path d="M253.469,88.363c-1.729,0 -3.305,-0.286 -4.729,-0.855c-1.423,-0.569 -2.647,-1.36 -3.669,-2.373c-1.023,-1.012 -1.819,-2.214 -2.388,-3.606c-0.57,-1.392 -0.855,-2.91 -0.855,-4.556l0,-0.062c0,-1.583 0.289,-3.064 0.869,-4.446c0.58,-1.381 1.387,-2.593 2.422,-3.637c1.033,-1.044 2.256,-1.867 3.669,-2.468c1.413,-0.601 2.963,-0.901 4.651,-0.901c0.99,0 1.892,0.068 2.704,0.205c0.812,0.137 1.566,0.332 2.262,0.585c0.696,0.254 1.35,0.57 1.962,0.95c0.61,0.378 1.201,0.812 1.77,1.296l-3.068,3.701c-0.421,-0.359 -0.844,-0.675 -1.265,-0.948c-0.423,-0.275 -0.86,-0.507 -1.313,-0.696c-0.454,-0.191 -0.944,-0.337 -1.471,-0.444c-0.528,-0.105 -1.108,-0.157 -1.74,-0.157c-0.885,0 -1.713,0.184 -2.484,0.553c-0.769,0.369 -1.444,0.865 -2.024,1.487c-0.58,0.622 -1.033,1.349 -1.36,2.182c-0.327,0.834 -0.491,1.724 -0.491,2.674l0,0.064c0,1.012 0.164,1.945 0.491,2.798c0.327,0.855 0.791,1.599 1.392,2.231c0.6,0.633 1.307,1.123 2.119,1.471c0.812,0.348 1.713,0.522 2.705,0.522c1.813,0 3.343,-0.442 4.587,-1.329l0,-3.163l-4.903,0l0,-4.208l9.616,0l0,9.618c-1.139,0.97 -2.493,1.797 -4.064,2.482c-1.572,0.687 -3.369,1.03 -5.395,1.03l0,0Z" style="fill:#0e2542;fill-rule:nonzero;"/></g></g></svg>