<?xml version="1.0" encoding="UTF-8" standalone="no"?><!DOCTYPE svg PUBLIC "-//W3C//DTD SVG 1.1//EN" "http://www.w3.org/Graphics/SVG/1.1/DTD/svg11.dtd"><svg width="100%" height="100%" viewBox="0 0 201 75" version="1.1" xmlns="http://www.w3.org/2000/svg" xmlns:xlink="http://www.w3.org/1999/xlink" xml:space="preserve" style="fill-rule:evenodd;clip-rule:evenodd;stroke-linejoin:round;stroke-miterlimit:1.41421;"><g><rect x="14.603" y="0" width="59.297" height="75" style="fill:#ff931e;fill-rule:nonzero;"/><path d="M47.053,66.108l20.735,-38.965l-14.585,0l-20.735,38.965l14.585,0Z" style="fill:#d86c00;fill-rule:nonzero;"/><path d="M73.934,66.108l0.01,-27.361l-14.595,27.361l14.585,0Z" style="fill:#d86c00;fill-rule:nonzero;"/><path d="M20.46,66.108l20.735,-38.965l-14.585,0l-12.007,22.565l0,16.4l5.857,0Z" style="fill:#d86c00;fill-rule:nonzero;"/><path d="M20.736,66.108l-20.736,-38.965l14.585,0l20.734,38.965l-14.583,0Z" style="fill:#fff;fill-rule:nonzero;"/><path d="M47.327,66.108l-20.735,-38.965l14.585,0l20.734,38.965l-14.584,0Z" style="fill:#fff;fill-rule:nonzero;"/><path d="M73.919,66.108l-20.734,-38.965l14.584,0l20.734,38.965l-14.584,0Z" style="fill:#fff;fill-rule:nonzero;"/><path d="M96.683,62.785c0.809,0 1.443,-0.148 1.902,-0.44c0.461,-0.295 0.691,-0.75 0.691,-1.368l0,-0.048c0,-0.554 -0.215,-0.995 -0.642,-1.319c-0.429,-0.326 -1.119,-0.489 -2.07,-0.489l-4.233,0l0,3.664l4.352,0Zm-0.975,-6.708c0.809,0 1.451,-0.138 1.927,-0.415c0.476,-0.278 0.713,-0.726 0.713,-1.345l0,-0.047c0,-0.555 -0.206,-0.979 -0.618,-1.273c-0.413,-0.294 -1.008,-0.44 -1.785,-0.44l-3.614,0l0,3.52l3.377,0Zm-6.945,-6.732l7.716,0c1.915,0 3.363,0.494 4.344,1.475c0.76,0.762 1.14,1.705 1.14,2.832l0,0.046c0,0.477 -0.059,0.897 -0.177,1.262c-0.119,0.364 -0.276,0.693 -0.473,0.985c-0.198,0.294 -0.425,0.552 -0.685,0.774c-0.26,0.223 -0.539,0.412 -0.839,0.571c0.963,0.365 1.72,0.861 2.273,1.486c0.552,0.627 0.828,1.496 0.828,2.606l0,0.046c0,0.76 -0.145,1.428 -0.439,1.998c-0.292,0.571 -0.712,1.047 -1.258,1.428c-0.545,0.379 -1.203,0.665 -1.971,0.856c-0.767,0.191 -1.619,0.285 -2.552,0.285l-7.907,0l0,-16.65Z" style="fill:#ff931e;fill-rule:nonzero;"/><path d="M111.443,57.432c0.904,0 1.598,-0.213 2.082,-0.642c0.483,-0.427 0.725,-0.999 0.725,-1.711l0,-0.048c0,-0.793 -0.255,-1.388 -0.761,-1.785c-0.507,-0.395 -1.213,-0.594 -2.117,-0.594l-3.639,0l0,4.78l3.71,0Zm-7.374,-8.087l7.612,0c2.108,0 3.726,0.564 4.852,1.69c0.952,0.952 1.427,2.221 1.427,3.805l0,0.048c0,1.349 -0.329,2.446 -0.986,3.294c-0.659,0.849 -1.519,1.471 -2.58,1.866l4.065,5.947l-4.28,0l-3.568,-5.328l-0.047,0l-2.831,0l0,5.328l-3.664,0l0,-16.65Z" style="fill:#ff931e;fill-rule:nonzero;"/><rect x="119.6" y="49.345" width="3.662" height="16.65" style="fill:#ff931e;fill-rule:nonzero;"/><path d="M131.991,66.232c-1.268,0 -2.514,-0.217 -3.734,-0.652c-1.221,-0.438 -2.332,-1.106 -3.331,-2.01l2.164,-2.593c0.76,0.618 1.542,1.11 2.343,1.474c0.801,0.365 1.677,0.547 2.628,0.547c0.761,0 1.352,-0.139 1.772,-0.417c0.421,-0.276 0.631,-0.661 0.631,-1.152l0,-0.048c0,-0.238 -0.044,-0.449 -0.132,-0.63c-0.087,-0.183 -0.254,-0.353 -0.5,-0.511c-0.247,-0.159 -0.588,-0.318 -1.026,-0.476c-0.437,-0.16 -1.006,-0.325 -1.705,-0.5c-0.843,-0.206 -1.607,-0.436 -2.289,-0.691c-0.684,-0.252 -1.264,-0.565 -1.741,-0.938c-0.477,-0.371 -0.847,-0.835 -1.109,-1.391c-0.262,-0.555 -0.394,-1.245 -0.394,-2.07l0,-0.047c0,-0.762 0.142,-1.448 0.426,-2.057c0.283,-0.611 0.681,-1.138 1.193,-1.582c0.513,-0.444 1.123,-0.786 1.833,-1.023c0.711,-0.237 1.495,-0.357 2.352,-0.357c1.221,0 2.342,0.184 3.365,0.547c1.023,0.365 1.962,0.889 2.818,1.57l-1.902,2.759c-0.745,-0.507 -1.475,-0.907 -2.189,-1.202c-0.713,-0.291 -1.426,-0.439 -2.14,-0.439c-0.714,0 -1.248,0.138 -1.605,0.416c-0.357,0.278 -0.536,0.623 -0.536,1.035l0,0.048c0,0.269 0.052,0.504 0.156,0.701c0.104,0.198 0.289,0.377 0.559,0.536c0.272,0.158 0.641,0.309 1.11,0.451c0.47,0.144 1.061,0.309 1.777,0.499c0.842,0.223 1.593,0.473 2.253,0.751c0.66,0.276 1.216,0.609 1.669,0.998c0.453,0.388 0.795,0.843 1.026,1.366c0.231,0.523 0.345,1.15 0.345,1.88l0,0.048c0,0.824 -0.149,1.557 -0.449,2.199c-0.298,0.642 -0.716,1.182 -1.252,1.618c-0.536,0.435 -1.174,0.77 -1.917,0.999c-0.743,0.23 -1.566,0.344 -2.469,0.344" style="fill:#ff931e;fill-rule:nonzero;"/><path d="M147.353,62.785c0.808,0 1.442,-0.148 1.902,-0.44c0.459,-0.295 0.69,-0.75 0.69,-1.368l0,-0.048c0,-0.554 -0.215,-0.995 -0.643,-1.319c-0.427,-0.326 -1.116,-0.489 -2.07,-0.489l-4.231,0l0,3.664l4.352,0Zm-0.976,-6.708c0.81,0 1.451,-0.138 1.926,-0.415c0.476,-0.278 0.715,-0.726 0.715,-1.345l0,-0.047c0,-0.555 -0.207,-0.979 -0.619,-1.273c-0.413,-0.294 -1.007,-0.44 -1.784,-0.44l-3.614,0l0,3.52l3.376,0Zm-6.945,-6.732l7.716,0c1.915,0 3.364,0.494 4.345,1.475c0.76,0.762 1.14,1.705 1.14,2.832l0,0.046c0,0.477 -0.061,0.897 -0.177,1.262c-0.119,0.364 -0.276,0.693 -0.475,0.985c-0.196,0.294 -0.423,0.552 -0.683,0.774c-0.26,0.223 -0.539,0.412 -0.84,0.571c0.964,0.365 1.722,0.861 2.274,1.486c0.552,0.627 0.828,1.496 0.828,2.606l0,0.046c0,0.76 -0.146,1.428 -0.439,1.998c-0.293,0.571 -0.712,1.047 -1.259,1.428c-0.546,0.379 -1.202,0.665 -1.971,0.856c-0.766,0.191 -1.618,0.285 -2.551,0.285l-7.908,0l0,-16.65Z" style="fill:#ff931e;fill-rule:nonzero;"/><path d="M164.087,59.026l-2.211,-5.398l-2.212,5.398l4.423,0Zm-3.853,-9.798l3.378,0l7.134,16.767l-3.83,0l-1.521,-3.735l-7.04,0l-1.523,3.735l-3.733,0l7.135,-16.767Z" style="fill:#ff931e;fill-rule:nonzero;"/><path d="M171.578,49.345l3.377,0l7.802,10.252l0,-10.252l3.615,0l0,16.65l-3.115,0l-8.064,-10.584l0,10.584l-3.615,0l0,-16.65Z" style="fill:#ff931e;fill-rule:nonzero;"/><path d="M188.036,49.345l12.533,0l0,3.26l-8.917,0l0,3.377l7.847,0l0,3.258l-7.847,0l0,3.496l9.038,0l0,3.259l-12.654,0l0,-16.65Z" style="fill:#ff931e;fill-rule:nonzero;"/><path d="M88.764,27.953l3.916,0l3.441,11.249l3.726,-11.297l3.133,0l3.726,11.297l3.441,-11.249l3.821,0l-5.672,16.733l-3.181,0l-3.749,-10.87l-3.75,10.87l-3.18,0l-5.672,-16.733Z" style="fill:#4d4d4d;fill-rule:nonzero;"/><path d="M121.497,36.331c0.918,0 1.629,-0.242 2.135,-0.724c0.507,-0.482 0.76,-1.08 0.76,-1.791l0,-0.047c0,-0.824 -0.265,-1.449 -0.795,-1.876c-0.53,-0.428 -1.254,-0.64 -2.172,-0.64l-2.824,0l0,5.078l2.896,0Zm-6.55,-8.378l6.787,0c0.997,0 1.887,0.14 2.67,0.416c0.782,0.277 1.447,0.669 1.994,1.174c0.546,0.506 0.964,1.112 1.257,1.816c0.293,0.704 0.44,1.482 0.44,2.338l0,0.047c0,0.965 -0.175,1.811 -0.522,2.538c-0.349,0.728 -0.828,1.339 -1.436,1.83c-0.609,0.489 -1.322,0.857 -2.136,1.102c-0.816,0.247 -1.69,0.369 -2.623,0.369l-2.777,0l0,4.982l-3.654,0l0,-16.612Z" style="fill:#4d4d4d;fill-rule:nonzero;"/></g></svg>