<?xml version="1.0" encoding="UTF-8" standalone="no"?><!DOCTYPE svg PUBLIC "-//W3C//DTD SVG 1.1//EN" "http://www.w3.org/Graphics/SVG/1.1/DTD/svg11.dtd"><svg width="100%" height="100%" viewBox="0 0 183 75" version="1.1" xmlns="http://www.w3.org/2000/svg" xmlns:xlink="http://www.w3.org/1999/xlink" xml:space="preserve" style="fill-rule:evenodd;clip-rule:evenodd;stroke-linejoin:round;stroke-miterlimit:1.41421;"><g><rect x="14.603" y="0" width="59.297" height="75" style="fill:#22b296;fill-rule:nonzero;"/><path d="M47.053,66.108l20.735,-38.966l-14.585,0l-20.735,38.966l14.585,0Z" style="fill:#1a947c;fill-rule:nonzero;"/><path d="M73.934,66.108l0.01,-27.361l-14.595,27.361l14.585,0Z" style="fill:#1a947c;fill-rule:nonzero;"/><path d="M20.46,66.108l20.735,-38.966l-14.585,0l-12.007,22.566l0,16.4l5.857,0Z" style="fill:#1a947c;fill-rule:nonzero;"/><path d="M20.736,66.108l-20.736,-38.966l14.585,0l20.734,38.966l-14.583,0Z" style="fill:#fff;fill-rule:nonzero;"/><path d="M47.327,66.108l-20.735,-38.966l14.585,0l20.734,38.966l-14.584,0Z" style="fill:#fff;fill-rule:nonzero;"/><path d="M73.919,66.108l-20.734,-38.966l14.584,0l20.734,38.966l-14.584,0Z" style="fill:#fff;fill-rule:nonzero;"/><path d="M95.226,66.346c-1.28,0 -2.537,-0.22 -3.768,-0.66c-1.233,-0.439 -2.353,-1.115 -3.361,-2.028l2.185,-2.617c0.767,0.625 1.556,1.121 2.363,1.489c0.808,0.368 1.693,0.552 2.653,0.552c0.768,0 1.364,-0.14 1.787,-0.421c0.425,-0.279 0.637,-0.667 0.637,-1.163l0,-0.048c0,-0.24 -0.045,-0.453 -0.133,-0.636c-0.089,-0.184 -0.257,-0.356 -0.505,-0.516c-0.248,-0.16 -0.594,-0.319 -1.035,-0.481c-0.441,-0.159 -1.014,-0.326 -1.721,-0.503c-0.851,-0.207 -1.621,-0.439 -2.309,-0.696c-0.69,-0.257 -1.276,-0.572 -1.758,-0.948c-0.481,-0.376 -0.854,-0.844 -1.117,-1.404c-0.267,-0.56 -0.399,-1.256 -0.399,-2.089l0,-0.046c0,-0.769 0.143,-1.461 0.43,-2.078c0.285,-0.615 0.687,-1.147 1.203,-1.594c0.518,-0.449 1.134,-0.795 1.851,-1.034c0.717,-0.239 1.509,-0.359 2.373,-0.359c1.231,0 2.364,0.184 3.396,0.552c1.032,0.367 1.98,0.896 2.844,1.584l-1.921,2.784c-0.752,-0.511 -1.488,-0.916 -2.207,-1.212c-0.721,-0.296 -1.44,-0.444 -2.161,-0.444c-0.72,0 -1.259,0.14 -1.62,0.419c-0.359,0.281 -0.539,0.628 -0.539,1.044l0,0.049c0,0.272 0.052,0.508 0.155,0.707c0.104,0.201 0.293,0.381 0.566,0.54c0.273,0.161 0.646,0.313 1.12,0.458c0.473,0.144 1.07,0.312 1.793,0.503c0.85,0.224 1.606,0.475 2.274,0.756c0.665,0.28 1.227,0.616 1.684,1.008c0.456,0.392 0.802,0.852 1.035,1.379c0.232,0.529 0.349,1.162 0.349,1.898l0,0.047c0,0.831 -0.152,1.572 -0.454,2.22c-0.301,0.648 -0.721,1.193 -1.263,1.632c-0.54,0.439 -1.186,0.776 -1.936,1.008c-0.749,0.231 -1.579,0.348 -2.491,0.348" style="fill:#22b296;fill-rule:nonzero;"/><path d="M107.187,59.482l-6.457,-10.177l4.321,0l4.008,6.745l4.081,-6.745l4.199,0l-6.455,10.105l0,6.696l-3.697,0l0,-6.624Z" style="fill:#22b296;fill-rule:nonzero;"/><path d="M124.889,62.77c0.754,0 1.44,-0.12 2.065,-0.36c0.624,-0.24 1.156,-0.584 1.596,-1.032c0.44,-0.448 0.784,-0.976 1.032,-1.584c0.248,-0.607 0.372,-1.288 0.372,-2.04l0,-0.048c0,-0.736 -0.124,-1.417 -0.372,-2.04c-0.248,-0.624 -0.592,-1.16 -1.032,-1.608c-0.44,-0.448 -0.972,-0.797 -1.596,-1.044c-0.625,-0.249 -1.311,-0.372 -2.065,-0.372l-2.855,0l0,10.128l2.855,0Zm-6.551,-13.465l6.551,0c1.312,0 2.516,0.212 3.612,0.637c1.096,0.424 2.041,1.012 2.833,1.763c0.792,0.754 1.404,1.637 1.836,2.653c0.433,1.016 0.648,2.117 0.648,3.3l0,0.048c0,1.184 -0.215,2.288 -0.648,3.312c-0.432,1.024 -1.044,1.912 -1.836,2.665c-0.792,0.751 -1.737,1.343 -2.833,1.775c-1.096,0.432 -2.3,0.649 -3.612,0.649l-6.551,0l0,-16.802Z" style="fill:#22b296;fill-rule:nonzero;"/><path d="M134.927,49.305l3.409,0l7.871,10.344l0,-10.344l3.648,0l0,16.801l-3.144,0l-8.134,-10.68l0,10.68l-3.65,0l0,-16.801Z" style="fill:#22b296;fill-rule:nonzero;"/><path d="M151.519,49.305l12.648,0l0,3.288l-8.999,0l0,3.409l7.919,0l0,3.288l-7.919,0l0,3.528l9.12,0l0,3.288l-12.769,0l0,-16.801Z" style="fill:#22b296;fill-rule:nonzero;"/><path d="M171.574,59.482l-6.454,-10.177l4.321,0l4.006,6.745l4.081,-6.745l4.2,0l-6.456,10.105l0,6.696l-3.698,0l0,-6.624Z" style="fill:#22b296;fill-rule:nonzero;"/><path d="M88.764,27.954l3.916,0l3.441,11.25l3.726,-11.297l3.133,0l3.726,11.297l3.441,-11.25l3.821,0l-5.672,16.733l-3.181,0l-3.749,-10.87l-3.75,10.87l-3.18,0l-5.672,-16.733Z" style="fill:#fff;fill-rule:nonzero;"/><path d="M121.497,36.333c0.918,0 1.629,-0.242 2.135,-0.724c0.507,-0.483 0.76,-1.081 0.76,-1.792l0,-0.047c0,-0.823 -0.265,-1.449 -0.795,-1.876c-0.53,-0.427 -1.254,-0.639 -2.172,-0.639l-2.824,0l0,5.078l2.896,0Zm-6.55,-8.379l6.787,0c0.997,0 1.887,0.14 2.67,0.416c0.782,0.278 1.447,0.669 1.994,1.174c0.546,0.507 0.964,1.113 1.257,1.816c0.293,0.705 0.44,1.483 0.44,2.338l0,0.048c0,0.964 -0.175,1.81 -0.522,2.538c-0.349,0.727 -0.828,1.338 -1.436,1.829c-0.609,0.49 -1.322,0.857 -2.136,1.103c-0.816,0.247 -1.69,0.368 -2.623,0.368l-2.777,0l0,4.983l-3.654,0l0,-16.613Z" style="fill:#fff;fill-rule:nonzero;"/></g></svg>