<?xml version="1.0" encoding="UTF-8" standalone="no"?><!DOCTYPE svg PUBLIC "-//W3C//DTD SVG 1.1//EN" "http://www.w3.org/Graphics/SVG/1.1/DTD/svg11.dtd"><svg width="100%" height="100%" viewBox="0 0 285 75" version="1.1" xmlns="http://www.w3.org/2000/svg" xmlns:xlink="http://www.w3.org/1999/xlink" xml:space="preserve" style="fill-rule:evenodd;clip-rule:evenodd;stroke-linejoin:round;stroke-miterlimit:1.41421;"><g><rect x="14.602" y="0" width="59.294" height="74.996" style="fill:#f9d05b;fill-rule:nonzero;"/><path d="M47.05,66.105l20.734,-38.964l-14.584,0l-20.733,38.964l14.583,0Z" style="fill:#f5b11f;fill-rule:nonzero;"/><path d="M73.929,66.105l0.01,-27.36l-14.593,27.36l14.583,0Z" style="fill:#f5b11f;fill-rule:nonzero;"/><path d="M20.459,66.105l20.734,-38.964l-14.585,0l-12.006,22.564l0,16.4l5.857,0Z" style="fill:#f5b11f;fill-rule:nonzero;"/><path d="M20.735,66.105l-20.735,-38.964l14.584,0l20.733,38.964l-14.582,0Z" style="fill:#fff;fill-rule:nonzero;"/><path d="M47.324,66.105l-20.734,-38.964l14.585,0l20.733,38.964l-14.584,0Z" style="fill:#fff;fill-rule:nonzero;"/><path d="M73.915,66.105l-20.733,-38.964l14.583,0l20.733,38.964l-14.583,0Z" style="fill:#fff;fill-rule:nonzero;"/><path d="M88.759,27.951l3.915,0l3.442,11.249l3.725,-11.296l3.133,0l3.726,11.296l3.441,-11.249l3.821,0l-5.672,16.732l-3.181,0l-3.749,-10.869l-3.749,10.869l-3.18,0l-5.672,-16.732Z" style="fill:#fff;fill-rule:nonzero;"/><path d="M121.49,36.329c0.918,0 1.629,-0.242 2.135,-0.724c0.507,-0.482 0.76,-1.08 0.76,-1.791l0,-0.047c0,-0.823 -0.265,-1.449 -0.795,-1.876c-0.529,-0.428 -1.254,-0.64 -2.172,-0.64l-2.823,0l0,5.078l2.895,0Zm-6.55,-8.378l6.787,0c0.997,0 1.887,0.14 2.67,0.416c0.782,0.278 1.447,0.669 1.994,1.174c0.546,0.506 0.964,1.113 1.257,1.816c0.293,0.704 0.44,1.483 0.44,2.338l0,0.048c0,0.964 -0.175,1.81 -0.522,2.537c-0.349,0.728 -0.828,1.339 -1.436,1.83c-0.609,0.489 -1.322,0.857 -2.136,1.102c-0.815,0.247 -1.689,0.368 -2.623,0.368l-2.776,0l0,4.983l-3.655,0l0,-16.612Z" style="fill:#fff;fill-rule:nonzero;"/><g><path d="M94.693,66.22c-1.265,0 -2.507,-0.217 -3.725,-0.652c-1.217,-0.435 -2.325,-1.103 -3.321,-2.005l2.159,-2.586c0.759,0.617 1.538,1.107 2.337,1.471c0.799,0.364 1.672,0.546 2.621,0.546c0.76,0 1.349,-0.139 1.768,-0.415c0.419,-0.277 0.629,-0.661 0.629,-1.151l0,-0.047c0,-0.238 -0.044,-0.447 -0.131,-0.629c-0.087,-0.182 -0.253,-0.352 -0.498,-0.51c-0.245,-0.158 -0.585,-0.317 -1.02,-0.475c-0.435,-0.158 -1.001,-0.324 -1.697,-0.498c-0.838,-0.206 -1.597,-0.435 -2.277,-0.688c-0.68,-0.253 -1.258,-0.565 -1.732,-0.937c-0.475,-0.372 -0.842,-0.834 -1.103,-1.388c-0.261,-0.554 -0.392,-1.242 -0.392,-2.064l0,-0.048c0,-0.759 0.143,-1.443 0.427,-2.052c0.285,-0.609 0.684,-1.135 1.198,-1.578c0.514,-0.442 1.127,-0.782 1.839,-1.02c0.712,-0.237 1.495,-0.356 2.349,-0.356c1.218,0 2.337,0.182 3.357,0.546c1.02,0.364 1.957,0.886 2.811,1.566l-1.898,2.752c-0.743,-0.506 -1.471,-0.905 -2.182,-1.198c-0.712,-0.293 -1.424,-0.439 -2.136,-0.439c-0.711,0 -1.245,0.138 -1.601,0.415c-0.356,0.277 -0.534,0.621 -0.534,1.032l0,0.048c0,0.269 0.052,0.502 0.154,0.7c0.103,0.197 0.289,0.375 0.558,0.533c0.269,0.159 0.637,0.309 1.103,0.451c0.467,0.143 1.056,0.309 1.768,0.498c0.838,0.222 1.585,0.471 2.242,0.748c0.656,0.277 1.21,0.609 1.66,0.996c0.451,0.388 0.791,0.842 1.021,1.364c0.229,0.522 0.344,1.147 0.344,1.875l0,0.047c0,0.823 -0.151,1.554 -0.451,2.195c-0.301,0.64 -0.72,1.178 -1.258,1.613c-0.537,0.435 -1.178,0.767 -1.921,0.996c-0.744,0.23 -1.566,0.344 -2.468,0.344Z" style="fill:#f9d05b;fill-rule:nonzero;"/><path d="M109.118,66.244c-2.23,0 -3.986,-0.617 -5.267,-1.85c-1.281,-1.234 -1.922,-3.077 -1.922,-5.528l0,-9.49l3.654,0l0,9.395c0,1.36 0.316,2.384 0.949,3.072c0.633,0.688 1.511,1.032 2.634,1.032c1.123,0 2,-0.332 2.633,-0.996c0.633,-0.665 0.949,-1.661 0.949,-2.99l0,-9.513l3.654,0l0,9.371c0,1.265 -0.17,2.365 -0.51,3.298c-0.34,0.933 -0.827,1.712 -1.459,2.337c-0.633,0.625 -1.4,1.091 -2.302,1.4c-0.901,0.308 -1.906,0.462 -3.013,0.462Z" style="fill:#f9d05b;fill-rule:nonzero;"/><path d="M118.347,49.376l3.369,0l7.782,10.225l0,-10.225l3.606,0l0,16.607l-3.108,0l-8.043,-10.557l0,10.557l-3.606,0l0,-16.607Z" style="fill:#f9d05b;fill-rule:nonzero;"/><path d="M141.218,66.22c-1.265,0 -2.507,-0.217 -3.725,-0.652c-1.218,-0.435 -2.325,-1.103 -3.321,-2.005l2.159,-2.586c0.759,0.617 1.538,1.107 2.337,1.471c0.798,0.364 1.672,0.546 2.621,0.546c0.76,0 1.349,-0.139 1.768,-0.415c0.419,-0.277 0.629,-0.661 0.629,-1.151l0,-0.047c0,-0.238 -0.044,-0.447 -0.131,-0.629c-0.087,-0.182 -0.253,-0.352 -0.498,-0.51c-0.245,-0.158 -0.585,-0.317 -1.02,-0.475c-0.435,-0.158 -1.001,-0.324 -1.697,-0.498c-0.838,-0.206 -1.597,-0.435 -2.277,-0.688c-0.68,-0.253 -1.258,-0.565 -1.732,-0.937c-0.475,-0.372 -0.842,-0.834 -1.103,-1.388c-0.261,-0.554 -0.392,-1.242 -0.392,-2.064l0,-0.048c0,-0.759 0.142,-1.443 0.427,-2.052c0.285,-0.609 0.684,-1.135 1.198,-1.578c0.514,-0.442 1.127,-0.782 1.839,-1.02c0.712,-0.237 1.495,-0.356 2.349,-0.356c1.218,0 2.337,0.182 3.357,0.546c1.02,0.364 1.957,0.886 2.811,1.566l-1.898,2.752c-0.743,-0.506 -1.471,-0.905 -2.182,-1.198c-0.712,-0.293 -1.424,-0.439 -2.136,-0.439c-0.711,0 -1.245,0.138 -1.601,0.415c-0.356,0.277 -0.534,0.621 -0.534,1.032l0,0.048c0,0.269 0.051,0.502 0.154,0.7c0.103,0.197 0.289,0.375 0.558,0.533c0.269,0.159 0.636,0.309 1.103,0.451c0.467,0.143 1.056,0.309 1.768,0.498c0.838,0.222 1.585,0.471 2.242,0.748c0.656,0.277 1.21,0.609 1.66,0.996c0.451,0.388 0.791,0.842 1.02,1.364c0.23,0.522 0.344,1.147 0.344,1.875l0,0.047c0,0.823 -0.15,1.554 -0.45,2.195c-0.301,0.64 -0.72,1.178 -1.258,1.613c-0.537,0.435 -1.178,0.767 -1.921,0.996c-0.744,0.23 -1.566,0.344 -2.468,0.344Z" style="fill:#f9d05b;fill-rule:nonzero;"/><path d="M148.715,49.376l3.654,0l0,6.571l6.738,0l0,-6.571l3.653,0l0,16.607l-3.653,0l0,-6.667l-6.738,0l0,6.667l-3.654,0l0,-16.607Z" style="fill:#f9d05b;fill-rule:nonzero;"/><rect x="165.133" y="49.376" width="3.654" height="16.608" style="fill:#f9d05b;fill-rule:nonzero;"/><path d="M171.159,49.376l3.369,0l7.782,10.225l0,-10.225l3.606,0l0,16.607l-3.108,0l-8.043,-10.557l0,10.557l-3.606,0l0,-16.607Z" style="fill:#f9d05b;fill-rule:nonzero;"/><path d="M188.123,49.376l12.526,0l0,3.25l-8.896,0l0,3.369l7.829,0l0,3.25l-7.829,0l0,3.488l9.015,0l0,3.25l-12.645,0l0,-16.607Z" style="fill:#f9d05b;fill-rule:nonzero;"/><path d="M214.508,66.268c-1.218,0 -2.349,-0.222 -3.393,-0.664c-1.044,-0.443 -1.945,-1.048 -2.704,-1.815c-0.76,-0.767 -1.353,-1.673 -1.78,-2.717c-0.427,-1.044 -0.64,-2.159 -0.64,-3.345l0,-0.048c0,-1.186 0.213,-2.297 0.64,-3.333c0.427,-1.036 1.02,-1.945 1.78,-2.728c0.759,-0.783 1.668,-1.4 2.728,-1.851c1.06,-0.451 2.23,-0.676 3.511,-0.676c0.775,0 1.483,0.063 2.124,0.19c0.64,0.126 1.222,0.3 1.744,0.522c0.521,0.221 1.004,0.49 1.447,0.806c0.443,0.317 0.854,0.665 1.233,1.044l-2.325,2.681c-0.648,-0.585 -1.308,-1.044 -1.981,-1.376c-0.672,-0.332 -1.427,-0.498 -2.265,-0.498c-0.696,0 -1.341,0.134 -1.934,0.403c-0.593,0.269 -1.103,0.641 -1.53,1.115c-0.427,0.475 -0.759,1.024 -0.997,1.649c-0.237,0.625 -0.356,1.293 -0.356,2.005l0,0.047c0,0.712 0.119,1.384 0.356,2.017c0.238,0.633 0.566,1.186 0.985,1.661c0.419,0.474 0.925,0.85 1.518,1.127c0.593,0.277 1.246,0.415 1.958,0.415c0.949,0 1.751,-0.174 2.408,-0.522c0.656,-0.348 1.309,-0.822 1.957,-1.424l2.325,2.349c-0.427,0.459 -0.87,0.87 -1.329,1.234c-0.458,0.364 -0.96,0.676 -1.506,0.937c-0.546,0.261 -1.143,0.459 -1.791,0.593c-0.649,0.135 -1.376,0.202 -2.183,0.202Z" style="fill:#f9d05b;fill-rule:nonzero;"/><path d="M230.57,62.899c0.727,0 1.4,-0.135 2.016,-0.403c0.617,-0.269 1.143,-0.641 1.578,-1.115c0.435,-0.475 0.775,-1.025 1.02,-1.649c0.246,-0.625 0.368,-1.293 0.368,-2.005l0,-0.048c0,-0.711 -0.122,-1.384 -0.368,-2.016c-0.245,-0.633 -0.593,-1.186 -1.044,-1.661c-0.45,-0.474 -0.984,-0.85 -1.601,-1.127c-0.617,-0.277 -1.289,-0.415 -2.017,-0.415c-0.743,0 -1.419,0.134 -2.028,0.403c-0.609,0.269 -1.131,0.641 -1.566,1.115c-0.435,0.475 -0.775,1.024 -1.02,1.649c-0.245,0.625 -0.368,1.293 -0.368,2.005l0,0.047c0,0.712 0.123,1.384 0.368,2.017c0.245,0.633 0.593,1.186 1.044,1.661c0.451,0.474 0.98,0.85 1.589,1.127c0.609,0.277 1.285,0.415 2.029,0.415Zm-0.048,3.369c-1.281,0 -2.459,-0.225 -3.535,-0.676c-1.075,-0.451 -2.004,-1.06 -2.787,-1.827c-0.783,-0.767 -1.392,-1.669 -1.827,-2.705c-0.435,-1.036 -0.653,-2.147 -0.653,-3.333l0,-0.048c0,-1.186 0.222,-2.297 0.665,-3.333c0.443,-1.036 1.055,-1.945 1.838,-2.728c0.783,-0.783 1.717,-1.4 2.8,-1.851c1.083,-0.451 2.266,-0.676 3.547,-0.676c1.281,0 2.459,0.225 3.535,0.676c1.075,0.451 2.005,1.06 2.788,1.827c0.783,0.767 1.391,1.669 1.826,2.705c0.435,1.036 0.653,2.147 0.653,3.333l0,0.047c0,1.187 -0.222,2.298 -0.664,3.334c-0.443,1.036 -1.056,1.945 -1.839,2.728c-0.783,0.783 -1.716,1.4 -2.8,1.851c-1.083,0.451 -2.265,0.676 -3.547,0.676Z" style="fill:#f9d05b;fill-rule:nonzero;"/><path d="M250.38,59.032l-2.206,-5.386l-2.207,5.386l4.413,0Zm-3.843,-9.775l3.369,0l7.117,16.726l-3.819,0l-1.519,-3.725l-7.022,0l-1.519,3.725l-3.725,0l7.118,-16.726Z" style="fill:#f9d05b;fill-rule:nonzero;"/><path d="M263.714,66.22c-1.266,0 -2.507,-0.217 -3.725,-0.652c-1.218,-0.435 -2.325,-1.103 -3.322,-2.005l2.159,-2.586c0.76,0.617 1.539,1.107 2.337,1.471c0.799,0.364 1.673,0.546 2.622,0.546c0.759,0 1.348,-0.139 1.767,-0.415c0.42,-0.277 0.629,-0.661 0.629,-1.151l0,-0.047c0,-0.238 -0.043,-0.447 -0.13,-0.629c-0.087,-0.182 -0.253,-0.352 -0.499,-0.51c-0.245,-0.158 -0.585,-0.317 -1.02,-0.475c-0.435,-0.158 -1,-0.324 -1.696,-0.498c-0.838,-0.206 -1.598,-0.435 -2.278,-0.688c-0.68,-0.253 -1.257,-0.565 -1.732,-0.937c-0.474,-0.372 -0.842,-0.834 -1.103,-1.388c-0.261,-0.554 -0.391,-1.242 -0.391,-2.064l0,-0.048c0,-0.759 0.142,-1.443 0.427,-2.052c0.284,-0.609 0.684,-1.135 1.198,-1.578c0.514,-0.442 1.127,-0.782 1.839,-1.02c0.711,-0.237 1.494,-0.356 2.348,-0.356c1.218,0 2.337,0.182 3.357,0.546c1.021,0.364 1.958,0.886 2.812,1.566l-1.898,2.752c-0.744,-0.506 -1.471,-0.905 -2.183,-1.198c-0.712,-0.293 -1.423,-0.439 -2.135,-0.439c-0.712,0 -1.246,0.138 -1.602,0.415c-0.355,0.277 -0.533,0.621 -0.533,1.032l0,0.048c0,0.269 0.051,0.502 0.154,0.7c0.103,0.197 0.289,0.375 0.557,0.533c0.269,0.159 0.637,0.309 1.104,0.451c0.466,0.143 1.055,0.309 1.767,0.498c0.838,0.222 1.586,0.471 2.242,0.748c0.657,0.277 1.21,0.609 1.661,0.996c0.451,0.388 0.791,0.842 1.02,1.364c0.229,0.522 0.344,1.147 0.344,1.875l0,0.047c0,0.823 -0.15,1.554 -0.451,2.195c-0.3,0.64 -0.719,1.178 -1.257,1.613c-0.538,0.435 -1.178,0.767 -1.922,0.996c-0.743,0.23 -1.566,0.344 -2.467,0.344Z" style="fill:#f9d05b;fill-rule:nonzero;"/><path d="M275.078,52.745l-5.053,0l0,-3.369l13.76,0l0,3.369l-5.053,0l0,13.238l-3.654,0l0,-13.238Z" style="fill:#f9d05b;fill-rule:nonzero;"/></g></g></svg>